<?xml version="1.0" encoding="UTF-8"?>
<svg xmlns="http://www.w3.org/2000/svg" xmlns:xlink="http://www.w3.org/1999/xlink" width="80px" height="100px" viewBox="0 0 80 100" version="1.1">
<g id="surface1">
<path style=" stroke:none;fill-rule:nonzero;fill:rgb(0%,17.647059%,38.431373%);fill-opacity:1;" d="M 40 83.878906 C 25.058594 83.878906 12.894531 68.679688 12.894531 50 C 12.894531 31.320312 25.058594 16.121094 40 16.121094 C 54.945312 16.121094 67.105469 31.320312 67.105469 50 C 67.105469 68.679688 54.945312 83.878906 40 83.878906 "/>
<path style=" stroke:none;fill-rule:nonzero;fill:rgb(0%,17.647059%,38.431373%);fill-opacity:1;" d="M 53.324219 40.289062 L 62.238281 40.289062 C 59.074219 28.949219 50.519531 20.785156 40.410156 20.566406 L 44.21875 35.222656 L 53.324219 35.222656 Z M 26.679688 66.96875 L 26.679688 61.914062 L 29.875 60.476562 L 29.132812 60.804688 L 29.875 60.476562 L 29.875 52.375 L 17.523438 41.15625 C 16.804688 44.019531 16.441406 47.003906 16.441406 50.003906 C 16.441406 59.617188 20.128906 68.148438 25.828125 73.519531 L 27.53125 66.96875 Z M 26.679688 35.222656 L 35.785156 35.222656 L 39.59375 20.566406 C 29.484375 20.777344 20.929688 28.949219 17.757812 40.289062 L 26.679688 40.289062 Z M 41.746094 63.160156 L 40.003906 61.574219 L 38.253906 63.160156 L 38.253906 66.96875 L 34.0625 66.96875 L 26.339844 73.984375 C 30.191406 77.421875 34.90625 79.449219 40 79.449219 C 45.09375 79.449219 49.808594 77.417969 53.664062 73.984375 L 45.9375 66.96875 L 41.746094 66.96875 Z M 62.476562 41.164062 L 50.132812 52.375 L 50.132812 60.476562 L 53.324219 61.914062 L 53.324219 66.96875 L 52.46875 66.96875 L 54.171875 73.519531 C 59.875 68.144531 63.558594 59.613281 63.558594 50.003906 C 63.558594 47.007812 63.195312 44.023438 62.476562 41.164062 "/>
<path style=" stroke:none;fill-rule:nonzero;fill:rgb(92.156863%,43.137255%,12.156863%);fill-opacity:1;" d="M 40 18.414062 C 26.039062 18.414062 14.730469 32.546875 14.730469 50 C 14.730469 67.453125 26.039062 81.585938 40 81.585938 C 53.957031 81.585938 65.273438 67.453125 65.273438 50 C 65.273438 32.546875 53.957031 18.414062 40 18.414062 M 54.171875 73.519531 L 52.46875 66.96875 L 45.9375 66.96875 L 53.664062 73.980469 C 49.808594 77.414062 45.09375 79.445312 40 79.445312 C 34.90625 79.445312 30.191406 77.421875 26.34375 73.980469 L 34.0625 66.96875 L 30.003906 66.96875 L 25.515625 74.734375 L 25.828125 73.519531 C 20.128906 68.152344 16.441406 59.617188 16.441406 50 C 16.441406 46.921875 16.820312 43.953125 17.523438 41.15625 L 29.875 52.375 L 29.875 50.429688 L 20.441406 41.859375 L 16.5625 40.289062 L 17.757812 40.289062 C 20.929688 28.949219 29.484375 20.777344 39.589844 20.566406 L 40 18.996094 L 40 47.855469 L 44.941406 47.855469 L 44.941406 41.714844 L 41.746094 40.289062 L 41.746094 35.222656 L 44.21875 35.222656 L 40.410156 20.566406 C 50.515625 20.78125 59.074219 28.949219 62.238281 40.289062 L 63.445312 40.289062 L 59.5625 41.863281 L 50.132812 41.863281 L 50.132812 52.375 L 62.476562 41.164062 C 63.195312 44.023438 63.558594 47.003906 63.558594 50 C 63.558594 59.613281 59.875 68.144531 54.171875 73.519531 "/>
<path style=" stroke:none;fill-rule:nonzero;fill:rgb(92.156863%,43.137255%,12.156863%);fill-opacity:1;" d="M 44.941406 60.476562 L 44.941406 54.34375 L 37.300781 54.34375 L 35.0625 58.210938 L 35.0625 60.476562 L 38.253906 61.910156 L 38.253906 63.160156 L 40 61.574219 L 41.746094 63.160156 L 41.746094 61.910156 "/>
<path style=" stroke:none;fill-rule:nonzero;fill:rgb(95.686275%,56.862745%,11.764706%);fill-opacity:1;" d="M 50.132812 41.714844 L 50.132812 41.863281 L 59.5625 41.863281 L 63.441406 40.289062 L 53.324219 40.289062 M 38.253906 35.222656 L 38.253906 40.289062 L 35.0625 41.714844 L 35.0625 47.851562 L 40 47.851562 L 40 18.996094 L 39.59375 20.566406 L 35.785156 35.222656 M 35.0625 58.210938 L 37.300781 54.34375 L 35.0625 54.34375 M 29.132812 60.808594 L 29.875 60.476562 Z M 25.828125 73.519531 L 25.515625 74.734375 L 30.003906 66.96875 L 27.53125 66.96875 M 26.679688 40.289062 L 16.5625 40.289062 L 20.441406 41.859375 L 29.875 50.429688 L 29.875 41.714844 "/>
<path style=" stroke:none;fill-rule:nonzero;fill:rgb(100%,100%,100%);fill-opacity:1;" d="M 26.679688 61.910156 L 26.679688 66.96875 L 27.703125 65.679688 L 37.226562 65.679688 L 37.226562 62.8125 L 38.253906 61.910156 L 35.066406 60.476562 L 34.03125 61.386719 L 34.03125 53.054688 L 45.96875 53.054688 L 44.941406 54.34375 L 44.941406 60.480469 L 41.746094 61.910156 L 41.746094 66.96875 L 42.777344 65.679688 L 52.296875 65.679688 L 52.296875 62.8125 L 53.328125 61.910156 L 50.132812 60.480469 L 49.097656 61.386719 L 49.097656 40.808594 L 52.296875 39.378906 L 52.296875 36.515625 L 53.328125 35.222656 L 41.746094 35.222656 L 41.746094 40.289062 L 42.777344 39.378906 L 45.96875 40.808594 L 44.941406 41.714844 L 44.941406 47.851562 L 35.0625 47.851562 L 34.03125 49.140625 L 34.03125 40.808594 L 37.226562 39.378906 L 37.226562 36.515625 L 38.253906 35.222656 L 26.679688 35.222656 L 26.679688 40.289062 L 27.703125 39.378906 L 30.90625 40.808594 L 29.875 41.714844 L 29.875 60.476562 "/>
<path style=" stroke:none;fill-rule:nonzero;fill:rgb(90.588235%,91.372549%,91.764706%);fill-opacity:1;" d="M 53.324219 40.289062 L 53.324219 35.222656 L 52.292969 36.515625 L 52.292969 39.378906 L 49.097656 40.808594 L 49.097656 61.382812 L 50.132812 60.476562 L 50.132812 41.714844 M 53.324219 61.910156 L 52.292969 62.8125 L 52.292969 65.679688 L 42.777344 65.679688 L 41.742188 66.96875 L 53.324219 66.96875 M 35.0625 54.34375 L 44.9375 54.34375 L 45.96875 53.054688 L 34.03125 53.054688 L 34.03125 61.386719 L 35.0625 60.472656 L 35.0625 58.210938 M 38.253906 63.160156 L 38.253906 61.910156 L 37.226562 62.8125 L 37.226562 65.679688 L 27.707031 65.679688 L 26.679688 66.96875 L 38.253906 66.96875 M 30.90625 40.808594 L 27.703125 39.378906 L 26.679688 40.289062 L 29.875 41.71875 M 42.777344 39.378906 L 41.746094 40.289062 L 44.941406 41.71875 L 45.96875 40.808594 M 38.253906 40.289062 L 38.253906 35.222656 L 37.226562 36.515625 L 37.226562 39.378906 L 34.03125 40.808594 L 34.03125 49.144531 L 35.0625 47.851562 L 35.0625 41.714844 "/>
<path style=" stroke:none;fill-rule:nonzero;fill:rgb(0%,17.647059%,38.431373%);fill-opacity:1;" d="M 61.238281 77.730469 L 60.675781 77.730469 L 60.675781 79.636719 L 60.300781 79.636719 L 60.300781 77.730469 L 59.738281 77.730469 L 59.738281 77.320312 L 61.238281 77.320312 L 61.238281 77.734375 Z M 63.773438 79.636719 L 63.394531 79.636719 L 63.394531 77.789062 L 63.386719 77.789062 L 62.847656 79.636719 L 62.484375 79.636719 L 61.964844 77.789062 L 61.957031 77.789062 L 61.957031 79.636719 L 61.574219 79.636719 L 61.574219 77.320312 L 62.230469 77.320312 L 62.664062 78.832031 L 62.671875 78.832031 L 63.121094 77.320312 L 63.773438 77.320312 Z M 63.773438 79.636719 "/>
</g>
</svg>
