<?xml version="1.0" encoding="UTF-8" standalone="no"?>
<svg
   xmlns:dc="http://purl.org/dc/elements/1.1/"
   xmlns:cc="http://creativecommons.org/ns#"
   xmlns:rdf="http://www.w3.org/1999/02/22-rdf-syntax-ns#"
   xmlns:svg="http://www.w3.org/2000/svg"
   xmlns="http://www.w3.org/2000/svg"
   xmlns:sodipodi="http://sodipodi.sourceforge.net/DTD/sodipodi-0.dtd"
   xmlns:inkscape="http://www.inkscape.org/namespaces/inkscape"
   viewBox="0 0 699.99999 699.99999"
   version="1.1"
   id="svg28"
   sodipodi:docname="miami-marlins-logo.svg"
   width="700"
   height="700"
   inkscape:export-filename="G:\Users\suitedoalex\sites\svg\miami-marlins-logo-0.png"
   inkscape:export-xdpi="561.73712"
   inkscape:export-ydpi="561.73712"
   inkscape:version="0.92.4 (5da689c313, 2019-01-14)">
  <metadata
     id="metadata34">
    <rdf:RDF>
      <cc:Work
         rdf:about="">
        <dc:format>image/svg+xml</dc:format>
        <dc:type
           rdf:resource="http://purl.org/dc/dcmitype/StillImage" />
        <dc:title>Miami Marlins Cap Logo on Dark</dc:title>
      </cc:Work>
    </rdf:RDF>
  </metadata>
  <defs
     id="defs32" />
  <sodipodi:namedview
     pagecolor="#ffffff"
     bordercolor="#666666"
     borderopacity="1"
     objecttolerance="10"
     gridtolerance="10"
     guidetolerance="10"
     inkscape:pageopacity="0"
     inkscape:pageshadow="2"
     inkscape:window-width="1600"
     inkscape:window-height="837"
     id="namedview30"
     showgrid="false"
     inkscape:zoom="0.36686628"
     inkscape:cx="397.3499"
     inkscape:cy="293.74258"
     inkscape:window-x="-8"
     inkscape:window-y="-8"
     inkscape:window-maximized="1"
     inkscape:current-layer="svg28" />
  <title
     id="title2">Miami Marlins Cap Logo on Dark</title>
  <path
     d="m 371.20565,376.01275 c 14.7033,-19.8949 34.84054,-47.13912 53.60996,-71.57317 l 0.14214,-0.17709 c 33.78032,-40.23486 55.29467,-59.96431 82.21733,-75.38997 a 170.62822,170.62822 0 0 1 26.92965,-12.1075 c -13.09782,3.59543 -26.92498,8.90121 -40.75215,16.642 a 225.55939,225.55939 0 0 0 -8.21614,4.94226 c -25.07717,14.88273 -46.60085,31.41987 -78.88287,72.66834 -0.2703,0.34486 -0.62216,0.80391 -0.8808,1.15809 a 118660.23,118660.23 0 0 1 -45.79229,62.27583 l 2.82183,13.45667 c 2.54919,-3.43233 5.51548,-7.44486 8.80334,-11.89546 z m -83.57115,45.09323 a 230.66243,230.66243 0 0 1 8.98509,-6.99514 l -10.13619,-48.06652 -6.13298,20.06267 z m 17.47852,43.7464 c -1.45635,2.12977 -1.82218,3.19698 -1.95967,4.39935 a 5.878991,5.878991 0 0 0 -0.035,0.40311 c -0.25166,4.30381 -0.90411,9.7354 -2.30919,13.53823 -0.0466,0.12815 -0.10952,0.27262 -0.16311,0.40544 l -3.77486,-18.12631 19.59897,94.14076 8.46314,-11.28729 -18.13097,-85.94558 z m 150.32089,-92.04361 -17.55077,23.60452 -57.09587,181.80599 94.87241,0.028 10.36922,-10.36454 -90.9531,0.002 z M 186.63142,582.66522 c -24.72997,11.59021 -50.52949,13.02326 -61.77483,13.82484 -4.59275,0.33088 -9.11093,0.46836 -13.59415,0.50331 16.8983,-13.21899 30.28274,-26.12574 39.19094,-44.42448 a 125.0107,125.0107 0 0 0 7.15825,-16.7655 c 3.20629,-9.30898 35.10151,-112.41852 57.82289,-186.0026 a 89.245088,89.245088 0 0 0 -6.60367,8.39556 c -5.29645,7.68253 -11.1335,15.90567 -14.59612,24.73464 l -0.44039,1.42838 c -0.0676,0.17942 -0.12817,0.37516 -0.19341,0.55691 l -1.72665,5.60637 -0.002,0.01 -1.82219,5.90695 c -3.00591,9.74473 -6.08171,19.69218 -9.07829,29.367 l -1.47034,4.74187 -0.0699,-0.0699 c -16.6634,53.6912 -30.36008,97.59139 -32.27314,103.40048 -11.27331,34.24634 -35.94037,50.55745 -67.05265,74.0175 11.126509,0.20039 23.10819,0.45204 34.58189,-0.46604 15.92198,-1.26527 61.02919,-4.01719 90.95775,-34.992 1.16275,-1.15109 2.29288,-2.33481 3.39039,-3.54649 a 112.29735,112.29735 0 0 0 8.07167,-10.13853 c -0.91809,1.11848 -1.85715,2.2253 -2.82882,3.30417 -8.08332,8.98276 -17.71387,15.64003 -27.64734,20.60792 z"
     id="path4"
     inkscape:connector-curvature="0"
     style="fill:#ef3340;stroke-width:2.33015895"
     inkscape:export-xdpi="71.138977"
     inkscape:export-ydpi="71.138977" />
  <path
     d="m 290.41671,601.13406 c -0.27962,-0.0536 -19.81801,-3.98224 -27.26985,-53.90357 -4.43896,-29.74914 -4.17565,-39.55212 -5.26151,-48.3508 -0.43573,-3.5232 -1.24896,-10.97738 -5.97685,-19.6945 l 1.81752,-5.94424 -0.01,-0.01 26.63372,-87.12465 6.13298,-20.06267 10.13852,48.06653 a 230.66243,230.66243 0 0 0 -8.98509,6.99513 c -6.44522,5.26849 -11.3968,9.80531 -13.82018,11.75099 -4.03116,3.23893 -6.88329,5.13801 -9.63287,6.15162 l -2.73794,8.96179 c 5.40364,-1.28391 10.58591,-4.61604 16.79812,-10.32027 6.29609,-5.78112 8.63091,-7.29339 16.79345,-14.37009 4.38536,-3.80282 8.44216,-6.92756 12.19139,-9.49307 l -18.88797,-89.54537 c 0,0 -52.47286,171.69776 -52.71752,172.54127 -2.75425,9.47676 -11.1335,38.31714 -29.10601,58.2866 -5.48287,6.09337 -21.10426,23.44605 -64.95784,29.38564 8.19283,-9.1855 18.58767,-23.93773 25.93,-45.25169 3.56048,-10.33426 40.53778,-129.96462 63.26149,-203.59764 -5.48985,4.24088 -10.68378,8.9478 -15.31381,14.19066 -22.71904,73.58409 -54.61659,176.69363 -57.82289,186.00261 a 125.0107,125.0107 0 0 1 -7.15825,16.7655 c -8.9082,18.29874 -22.29497,31.20548 -39.19094,44.42447 a 210.04985,210.04985 0 0 0 13.59414,-0.5033 c 11.24535,-0.79925 37.04487,-2.23463 61.77485,-13.82484 9.93347,-4.9679 19.56401,-11.62749 27.64733,-20.60792 0.97168,-1.07887 1.9084,-2.18336 2.82882,-3.30417 17.60435,-21.43047 25.77155,-49.50889 28.54444,-59.05555 0.23302,-0.79924 0.42875,-1.47732 0.5872,-2.00394 l 2.39541,-7.83632 c 1.02293,2.98028 1.60781,6.21687 1.9317,9.91949 0,0 1.93636,18.13097 4.77449,43.57863 6.87164,61.62804 34.56092,62.77215 45.80627,65.28873 -0.005,0.01 -5.21257,-2.1321 -10.73271,-7.50545 z M 595.50908,206.44242 c -16.0012,0 -37.91169,2.08549 -61.40202,10.32726 a 170.62822,170.62822 0 0 0 -26.92965,12.1075 c -26.92265,15.42566 -48.43934,35.15279 -82.21732,75.38997 l -0.14214,0.17709 c -18.76944,24.43171 -38.90666,51.67827 -53.60997,71.57317 -3.28786,4.45059 -6.25415,8.46314 -8.80335,11.89778 l -2.82182,-13.45667 -19.84595,-94.64405 c -3.35544,0.0419 -6.87631,0.25398 -10.53932,0.63613 l 27.70792,132.13632 6.92057,-9.1249 c 3.21562,-4.23857 8.75908,-11.73934 15.77984,-21.23707 14.66136,-19.83664 34.73102,-46.99232 53.42355,-71.3285 32.85525,-39.1257 53.62396,-58.22368 79.29298,-72.93165 29.62099,-16.5814 59.40507,-20.6918 80.12019,-21.04832 -21.59125,20.00908 -37.54818,47.12746 -48.57916,82.462 l -67.94976,218.84387 c -2.1321,7.32835 -3.60009,12.97199 -4.33409,18.46418 -1.06022,7.95982 -1.03926,14.72194 0.0979,20.75472 l -62.43661,0.002 74.1946,-239.80132 -153.06116,205.87187 -15.31614,-72.61241 a 309.69211,309.69211 0 0 0 -8.25109,11.48768 l 18.13097,85.94559 112.94979,-151.91704 17.55076,-23.60452 -60.3581,195.07625 90.95542,-0.002 c -1.87578,-4.77683 -2.12976,-5.58773 -2.61677,-7.04175 -2.26724,-6.10035 -2.73794,-13.33783 -1.48198,-22.7773 0.64546,-4.83974 2.01326,-10.06629 3.98224,-16.8354 l 67.92181,-218.74833 c 12.09352,-38.73656 30.25711,-66.91984 55.52768,-86.15996 a 363.17392,363.17392 0 0 1 10.52533,-7.95982 c -0.007,-0.005 -12.46868,-1.77791 -24.38511,-1.92238 z"
     id="path6"
     inkscape:connector-curvature="0"
     style="fill:#00a3e0;stroke-width:2.33015895"
     inkscape:export-xdpi="71.138977"
     inkscape:export-ydpi="71.138977" />
  <path
     d="m 296.34929,462.93467 a 15.742554,15.742554 0 0 1 1.16974,-1.99695 l 0.0163,-0.0233 c 2.46298,-3.60476 9.52569,-13.89707 15.77052,-21.08096 l 2.16471,-2.49094 0.33322,-0.38447 0.16777,-0.1934 c 11.92808,-13.73629 22.21341,-25.4733 30.30838,-28.18794 -0.11652,-0.0326 -0.24001,-0.0396 -0.35652,-0.0676 -1.62179,-0.20272 -7.40991,-0.0979 -18.25912,8.38391 -5.26151,4.50886 -11.79993,10.85388 -19.72246,19.79703 -8.75675,9.88454 -12.82754,16.69792 -15.84742,20.6056 -2.25793,2.9057 -2.936,4.52051 -3.38339,7.23514 -0.0839,0.50332 -0.28428,8.37692 -1.76859,12.39412 -1.13013,3.06182 -5.75083,9.73307 -5.99317,10.14085 -2.16239,3.60475 -1.90141,5.35703 -1.8315,7.35631 0.0699,1.99928 -0.33089,28.5794 0.42409,58.14912 0.75497,29.56971 10.88649,48.56284 10.88649,48.56284 l -0.0139,-0.002 v 0.002 c 5.51781,5.37102 10.72805,7.51243 10.72805,7.51243 -5.29646,-9.23908 -14.15106,-35.84017 -14.67301,-56.2547 -0.54526,-21.31396 -0.0909,-39.91328 -0.28428,-50.84872 -0.0373,-2.40007 -0.0839,-4.7978 -0.14215,-7.19787 l -0.0186,-0.6268 c -0.0419,-1.0043 -0.0443,-1.30024 0.94605,-3.20398 0.11185,-0.18175 0.20738,-0.32389 0.36118,-0.55458 2.56084,-3.86107 5.07275,-7.82467 6.112,-10.63717 1.40509,-3.80515 1.87578,-9.23209 2.12744,-13.53356 0.007,-0.11185 0.0163,-0.24933 0.035,-0.40545 0.12582,-0.73866 0.27962,-1.47499 0.73633,-2.449 z"
     id="path8"
     inkscape:connector-curvature="0"
     style="fill:#41748d;stroke-width:2.33015895"
     inkscape:export-xdpi="71.138977"
     inkscape:export-ydpi="71.138977" />
  <path
     d="m 180.97147,425.80591 c -34.03663,-38.6084 -46.40046,-93.50229 -29.06641,-141.41501 -3.0222,0.11884 -5.95354,0.25631 -8.78702,0.41476 -5.1846,15.60741 -7.60331,32.29368 -7.09301,49.0848 0,0.0839 0.0583,1.41207 0.0583,1.41207 1.89908,39.2259 21.80796,73.43729 43.34795,95.17535 l 0.0466,0.0466 c 0.51031,-1.56819 1.00896,-3.14105 1.49363,-4.71857 z"
     id="path10"
     inkscape:connector-curvature="0"
     style="fill:#00a3e0;stroke-width:2.33015895"
     inkscape:export-xdpi="71.138977"
     inkscape:export-ydpi="71.138977" />
  <path
     d="m 471.21374,181.26504 -81.24099,14.65904 81.49031,-14.67535 c 0,0 -81.82819,29.95653 -99.83099,36.76059 -18.00048,6.80407 -17.57173,23.742 -17.57173,23.742 l 35.15977,-2.13443 c 27.06246,-1.69868 36.14775,5.67394 36.14775,5.67394 l -63.47586,6.79241 -20.14422,19.58266 c -51.54544,-0.40779 -163.01326,41.45819 -151.70034,124.77069 l 1.81985,-5.90229 0.005,-0.0163 1.72665,-5.60637 c 0.0653,-0.18175 0.12582,-0.37749 0.1934,-0.55691 l 0.4404,-1.42839 2.33016,-7.54738 c 0.62448,-1.97365 1.25129,-3.92165 1.82451,-5.65996 a 95.811476,95.811476 0 0 1 7.24912,-18.3896 c 13.81086,-26.58945 41.82636,-43.85593 62.15234,-53.27677 19.95548,-9.25073 42.43685,-15.62837 61.40434,-17.609 a 115.42909,115.42909 0 0 1 10.53932,-0.63614 c 0.4171,-0.005 0.8505,-0.0257 1.26294,-0.0257 l 4.03584,0.028 21.74504,-21.26038 76.77641,-8.26041 c -2.91037,-3.18066 -17.40396,-17.28978 -46.02064,-17.86067 -2.80086,-0.0559 -5.76016,0.0955 -8.79402,0.28661 l -23.90277,1.46101 c 1.34916,-3.98923 4.74188,-7.9738 9.66317,-9.83327 17.75581,-6.71319 112.55599,-41.5747 113.37388,-41.87529 l 7.60331,-7.42155 z"
     id="path12"
     inkscape:connector-curvature="0"
     style="fill:#41748d;stroke-width:2.33015895"
     inkscape:export-xdpi="71.138977"
     inkscape:export-ydpi="71.138977" />
  <path
     d="m 161.15813,334.81554 a 125.48605,125.48605 0 0 0 3.82845,25.59213 c -2.30919,-30.11498 2.936,-55.47876 13.77124,-76.33834 a 468.59497,468.59497 0 0 0 -8.48877,-0.0582 c -6.83668,15.84974 -9.90317,32.92514 -9.11092,50.80446 z M 300.24066,210.42 c -0.81323,0.0163 -1.63112,0.0257 -2.43735,0.0512 -35.63512,1.11147 -68.64182,10.73037 -92.30459,28.5957 a 120.0195,120.0195 0 0 0 -10.78863,9.19481 118.26721,118.26721 0 0 0 -11.45041,13.27492 c 4.20828,-0.70837 8.34198,-1.32353 12.39179,-1.85015 24.99096,-27.86171 62.70225,-43.93981 104.58919,-49.26655 z"
     id="path14"
     inkscape:connector-curvature="0"
     style="fill:#ef3340;stroke-width:2.33015895"
     inkscape:export-xdpi="71.138977"
     inkscape:export-ydpi="71.138977" />
  <path
     d="m 389.22243,239.61922 -35.15976,2.13442 c 0,0 -0.42875,-16.93792 17.57173,-23.74198 18.00047,-6.80407 99.831,-36.76059 99.831,-36.76059 l -81.49032,14.67534 -17.57173,3.16435 c -13.96464,-0.51263 -25.23563,1.26062 -25.23563,1.26062 a 79.686776,79.686776 0 0 0 -19.80402,-6.73882 97.661626,97.661626 0 0 0 -6.01414,-1.25829 c -9.47209,-20.1582 -28.07841,-54.50008 -57.51065,-86.4885 -8.02506,23.73033 3.29019,39.64066 -12.35916,72.31182 -1.75461,3.66301 -3.35543,6.9765 -6.88794,10.86087 -13.53358,14.88739 -21.03901,16.63733 -34.76831,25.88107 -22.62118,14.07883 -38.98589,31.80667 -49.73025,51.3637 a 329.20486,329.20486 0 0 1 23.16177,-4.74887 118.50723,118.50723 0 0 1 11.45041,-13.27491 120.0195,120.0195 0 0 1 10.78863,-9.19481 c 23.66044,-17.86533 56.66947,-27.48422 92.30459,-28.59571 0.80857,-0.0257 1.62412,-0.035 2.43735,-0.0512 -41.88694,5.32907 -79.59823,21.40484 -104.58919,49.26422 30.19886,-3.92865 55.66051,-3.06649 70.82052,-0.92741 -10.80494,3.9706 -21.76834,8.97578 -32.22143,15.0272 a 173.58752,173.58752 0 0 0 -18.47118,12.28926 464.36806,464.36806 0 0 0 -37.02156,-2.00161 c -10.83524,20.85958 -16.08043,46.22336 -13.77124,76.33834 a 125.64683,125.64683 0 0 1 -3.82845,-25.59213 c -0.79226,-17.88164 2.27423,-34.95705 9.11092,-50.80446 -6.42192,0.0139 -12.55257,0.15611 -18.36398,0.37982 -17.33406,47.91272 -4.97023,102.80661 29.0664,141.41501 2.99659,-9.67482 6.0724,-19.62226 9.0783,-29.367 -11.31292,-83.31256 100.15723,-125.17852 151.70034,-124.77074 l 20.14422,-19.58266 63.47587,-6.79242 c 0.005,0 -9.08063,-7.37262 -36.14311,-5.67393 z M 272.10399,136.91979 c -0.0257,-0.37981 -0.0257,-1.37945 -0.0419,-2.37209 15.30682,20.75006 26.49624,40.9106 32.68282,53.00179 -19.24246,0.12582 -36.03824,4.78615 -49.36909,10.46008 8.74043,-11.83721 18.71351,-32.6595 16.72822,-61.08978 z m 73.00155,105.37912 -15.34177,0.93671 c 0,0 3.18533,-12.75295 23.44606,-19.48711 0,0.002 -6.37065,3.67 -8.10429,18.5504 z"
     id="path16"
     inkscape:connector-curvature="0"
     style="stroke-width:2.33015895"
     inkscape:export-xdpi="71.138977"
     inkscape:export-ydpi="71.138977" />
  <path
     d="m 272.05972,134.5477 c 0.0187,0.99031 0.0163,1.99228 0.0419,2.37209 1.98529,28.43028 -7.98778,49.25491 -16.73055,61.09211 13.33317,-5.67626 30.12663,-10.33659 49.36909,-10.46008 -6.18425,-12.0912 -17.37367,-32.25406 -32.68048,-53.00412 z"
     id="path18"
     inkscape:connector-curvature="0"
     style="fill:#00a3e0;stroke-width:2.33015895"
     inkscape:export-xdpi="71.138977"
     inkscape:export-ydpi="71.138977" />
  <path
     d="m 329.76377,243.23796 15.34177,-0.93673 c 1.73364,-14.88272 8.10429,-18.54807 8.10429,-18.54807 -20.26073,6.72951 -23.44606,19.4848 -23.44606,19.4848 z m -159.49472,40.77312 c 2.77755,-0.007 5.61335,0.0163 8.48877,0.0582 11.6671,0.17477 24.0985,0.77129 37.02157,2.00161 a 173.94404,173.94404 0 0 1 18.47117,-12.28926 c -38.31714,-1.67072 -89.82996,0.24933 -138.984666,16.24121 1.214013,-0.23302 19.729456,-3.63272 47.852146,-5.21489 2.83348,-0.15846 5.76714,-0.29826 8.78702,-0.41478 5.81143,-0.22603 11.94207,-0.36816 18.36399,-0.38214 z"
     id="path20"
     inkscape:connector-curvature="0"
     style="fill:#41748d;stroke-width:2.33015895"
     inkscape:export-xdpi="71.138977"
     inkscape:export-ydpi="71.138977" />
  <path
     d="m 234.25056,273.78401 c 10.45076,-6.05142 21.41649,-11.05428 32.22143,-15.02719 -15.16234,-2.14142 -40.62166,-3.00358 -70.82052,0.9274 a 334.05625,334.05625 0 0 0 -35.55356,6.59901 c 10.74436,-19.55935 27.10906,-37.28721 49.73025,-51.3637 13.7293,-9.24374 21.23473,-10.99368 34.7683,-25.88107 3.53252,-3.88437 5.13334,-7.19786 6.88795,-10.86087 15.64935,-32.67116 4.33176,-48.58149 12.35916,-72.31182 29.43224,31.99075 48.03623,66.3303 57.51066,86.4885 2.01792,0.35885 4.02185,0.77828 6.01414,1.25829 a 79.686776,79.686776 0 0 1 19.80402,6.73882 c 0,0 11.26865,-1.77325 25.23562,-1.26062 l 17.57173,-3.16435 81.24099,-14.65903 24.2686,-6.21454 7.98779,-7.69185 -131.66796,23.58354 a 160.5666,160.5666 0 0 0 -23.32955,1.03692 87.348339,87.348339 0 0 0 -19.85994,-6.40328 c -0.51963,-0.10951 -1.03692,-0.23301 -1.55423,-0.35185 -10.04298,-20.81997 -28.19026,-53.11132 -56.84422,-84.26787 -4.75585,-4.788474 -6.45454,-6.272791 -10.54164,-9.60491 -1.66839,3.64203 -4.05914,12.41509 -4.05914,12.41509 -2.57716,8.66585 -3.42999,21.33959 -3.51388,33.80594 0.2237,9.302 -0.96935,25.21232 -8.41187,38.28917 -5.07974,8.56334 -12.79957,15.74255 -24.43638,23.60218 -0.91575,0.57089 -1.84316,1.16741 -2.79619,1.80121 -5.83471,3.46961 -15.64002,9.04102 -23.06857,14.69631 -20.70579,14.85244 -33.63585,31.54803 -43.93048,53.10666 -17.7931,4.97722 -36.15941,11.77895 -54.276401,20.96677 l 0.07457,-0.0139 C 144.4206,274.03101 195.93342,272.11096 234.25056,273.78401 Z"
     id="path22"
     inkscape:connector-curvature="0"
     style="fill:#00a3e0;stroke-width:2.33015895"
     inkscape:export-xdpi="71.138977"
     inkscape:export-ydpi="71.138977" />
  <path
     d="m 300.80922,483.19773 c 1.40508,-3.80515 2.05753,-9.23675 2.30918,-13.53822 0.007,-0.10952 0.0163,-0.24933 0.035,-0.40313 0.13749,-1.20468 0.50332,-2.26957 1.95966,-4.39933 0.43109,-0.63147 1.00896,-1.47966 1.68938,-2.46997 a 309.69211,309.69211 0 0 1 8.25109,-11.48769 l 15.31613,72.61242 153.06115,-205.87187 -74.19459,239.80131 62.43661,-0.002 c -1.13711,-6.03278 -1.15809,-12.79491 -0.0979,-20.75473 0.734,-5.49218 2.20201,-11.13583 4.3341,-18.46418 L 543.8588,299.37647 c 11.03097,-35.33453 26.98789,-62.45292 48.57915,-82.46199 -20.71278,0.35651 -50.49688,4.46691 -80.12019,21.04832 -25.66204,14.70796 -46.43075,33.80594 -79.28832,72.93165 -18.69253,24.33385 -38.76219,51.49184 -53.42355,71.3285 -7.02077,9.49772 -12.56422,16.9985 -15.77984,21.23706 l -6.92057,9.12491 -27.70792,-132.13633 c -18.96749,1.98063 -41.44886,8.35828 -61.40434,17.60901 -20.32599,9.42084 -48.34149,26.68731 -62.15234,53.27676 a 95.660016,95.660016 0 0 0 -7.24912,18.38961 c -0.57555,1.73829 -1.20237,3.68864 -1.82451,5.65996 l -2.33016,7.54738 c 3.46261,-8.82897 9.29966,-17.0521 14.59611,-24.73463 a 89.245088,89.245088 0 0 1 6.60367,-8.39557 c 4.62769,-5.24286 9.82396,-9.95211 15.31381,-14.19067 -22.72371,73.6307 -59.70333,193.26339 -63.26149,203.59764 -7.34233,21.31397 -17.73717,36.0662 -25.93,45.25168 43.85358,-5.93957 59.47497,-23.29226 64.95784,-29.38563 17.9725,-19.96945 26.35176,-48.80983 29.106,-58.28659 0.24467,-0.84352 52.71753,-172.54128 52.71753,-172.54128 l 18.88826,89.54567 c -3.74923,2.56551 -7.8037,5.68792 -12.19139,9.49307 -8.16254,7.07669 -10.49504,8.58897 -16.79345,14.37009 -6.21454,5.70423 -11.39682,9.03869 -16.79812,10.32028 l -7.71982,25.26824 -1.81753,5.94424 c 4.73023,8.71712 5.54346,16.1713 5.97686,19.6945 1.08819,8.79868 0.82255,18.60166 5.26151,48.3508 7.45184,49.92132 26.99023,53.84998 27.26984,53.90357 l 0.014,0.002 c 0,0 -10.13154,-18.99313 -10.88651,-48.56284 -0.7573,-29.56972 -0.35651,-56.14985 -0.42409,-58.14912 -0.0699,-1.99695 -0.33321,-3.74922 1.83151,-7.35631 0.24467,-0.40778 4.86304,-7.07902 5.99317,-10.14085 1.48431,-4.01719 1.6847,-11.89081 1.76858,-12.39411 0.4474,-2.71464 1.12548,-4.32944 3.3834,-7.23515 3.01988,-3.90768 7.08834,-10.72106 15.84741,-20.6056 7.92254,-8.94314 14.46097,-15.28817 19.72246,-19.79703 10.84689,-8.48177 16.63734,-8.58664 18.25913,-8.38391 0.11884,0.028 0.24001,0.035 0.35651,0.0676 -8.09497,2.71464 -18.38029,14.45165 -30.30837,28.18794 l -0.16778,0.1934 -0.33321,0.38448 -2.16472,2.49094 c -6.24715,7.18388 -13.30753,17.47386 -15.77051,21.08095 l -0.0163,0.0233 a 20.097621,20.097621 0 0 0 -0.741,1.18372 c -0.16311,0.28894 -0.30991,0.56157 -0.42874,0.81323 l -0.005,0.007 0.52894,2.53521 3.77486,18.1263 c 0.0489,-0.13981 0.11185,-0.28194 0.15845,-0.4101 z"
     id="path24"
     inkscape:connector-curvature="0"
     style="stroke-width:2.33015895"
     inkscape:export-xdpi="71.138977"
     inkscape:export-ydpi="71.138977" />
  <path
     d="m 502.82235,555.65868 h -0.0443 l -2.01559,-6.3124 h -3.07814 v 9.65618 h 1.77325 v -7.69186 h 0.0489 l 2.43268,7.68021 h 1.70103 l 2.5189,-7.68021 h 0.0419 v 7.68021 h 1.77325 v -9.64453 h -3.05484 z m -13.74095,-4.58575 h 2.61444 v 7.92953 h 1.76859 v -7.92953 h 2.63774 v -1.72665 h -7.02077 z"
     id="path26"
     inkscape:connector-curvature="0"
     style="fill:#00a3e0;stroke-width:2.33015895"
     inkscape:export-xdpi="71.138977"
     inkscape:export-ydpi="71.138977" />
</svg>
