<?xml version="1.0" encoding="UTF-8"?>
<svg xmlns="http://www.w3.org/2000/svg" xmlns:xlink="http://www.w3.org/1999/xlink" width="465px" height="581px" viewBox="0 0 465 581" version="1.1">
<g id="surface1">
<path style=" stroke:none;fill-rule:nonzero;fill:rgb(93.72549%,20%,25.098039%);fill-opacity:1;" d="M 246.585938 312.089844 C 256.355469 295.578125 269.730469 272.964844 282.199219 252.683594 L 282.292969 252.539062 C 304.734375 219.144531 319.023438 202.765625 336.910156 189.964844 C 342.628906 185.976562 348.613281 182.613281 354.796875 179.914062 C 346.097656 182.898438 336.914062 187.304688 327.726562 193.726562 C 325.882812 195.046875 324.066406 196.414062 322.269531 197.828125 C 305.609375 210.183594 291.3125 223.910156 269.867188 258.144531 C 269.6875 258.429688 269.457031 258.8125 269.285156 259.105469 C 259.148438 276.339844 249.007812 293.570312 238.863281 310.792969 L 240.738281 321.964844 C 242.433594 319.113281 244.402344 315.785156 246.585938 312.089844 Z M 191.070312 349.519531 C 193.023438 347.523438 195.011719 345.585938 197.039062 343.710938 L 190.308594 303.816406 L 186.234375 320.46875 Z M 202.683594 385.828125 C 201.714844 387.59375 201.472656 388.480469 201.378906 389.480469 C 201.371094 389.589844 201.363281 389.703125 201.355469 389.8125 C 201.191406 393.386719 200.757812 397.894531 199.824219 401.050781 C 199.792969 401.15625 199.75 401.277344 199.714844 401.386719 L 197.207031 386.34375 L 210.226562 464.480469 L 215.847656 455.109375 L 203.804688 383.777344 Z M 302.539062 309.429688 L 290.878906 329.023438 L 252.953125 479.921875 L 315.972656 479.945312 L 322.863281 471.34375 L 262.441406 471.34375 Z M 123.976562 483.613281 C 107.546875 493.230469 90.410156 494.421875 82.941406 495.085938 C 79.890625 495.363281 76.886719 495.476562 73.910156 495.503906 C 85.136719 484.53125 94.027344 473.820312 99.945312 458.632812 C 101.796875 454.144531 103.386719 449.492188 104.699219 444.71875 C 106.828125 436.992188 128.015625 351.410156 143.109375 290.335938 C 141.539062 292.546875 140.074219 294.871094 138.722656 297.304688 C 135.203125 303.679688 131.328125 310.503906 129.027344 317.832031 L 128.734375 319.019531 C 128.691406 319.167969 128.648438 319.328125 128.605469 319.480469 L 127.460938 324.132812 L 127.457031 324.140625 L 126.246094 329.042969 C 124.25 337.132812 122.207031 345.390625 120.21875 353.417969 L 119.242188 357.355469 L 119.195312 357.296875 C 108.125 401.859375 99.027344 438.296875 97.753906 443.121094 C 90.265625 471.542969 73.878906 485.082031 53.214844 504.554688 C 60.605469 504.71875 68.5625 504.929688 76.183594 504.167969 C 86.761719 503.117188 116.726562 500.832031 136.605469 475.125 C 137.378906 474.167969 138.128906 473.1875 138.859375 472.179688 C 140.773438 469.507812 142.566406 466.695312 144.222656 463.765625 C 143.613281 464.695312 142.988281 465.613281 142.34375 466.507812 C 136.972656 473.964844 130.574219 479.488281 123.976562 483.613281 Z M 123.976562 483.613281 "/>
<path style=" stroke:none;fill-rule:nonzero;fill:rgb(0%,63.921569%,87.843137%);fill-opacity:1;" d="M 192.917969 498.941406 C 192.734375 498.898438 179.753906 495.636719 174.804688 454.203125 C 171.855469 429.507812 172.03125 421.375 171.308594 414.070312 C 171.019531 411.144531 170.480469 404.957031 167.339844 397.722656 L 168.546875 392.789062 L 168.539062 392.78125 L 186.230469 320.46875 L 190.304688 303.816406 L 197.042969 343.710938 C 195.015625 345.585938 193.023438 347.519531 191.074219 349.515625 C 186.792969 353.890625 183.5 357.65625 181.890625 359.269531 C 179.214844 361.960938 177.320312 363.535156 175.492188 364.375 L 173.675781 371.816406 C 177.265625 370.75 180.707031 367.984375 184.832031 363.25 C 189.015625 358.449219 190.566406 357.195312 195.988281 351.320312 C 198.902344 348.164062 201.597656 345.570312 204.085938 343.441406 L 191.539062 269.121094 C 191.539062 269.121094 156.683594 411.628906 156.519531 412.328125 C 154.691406 420.195312 149.125 444.132812 137.1875 460.707031 C 133.542969 465.765625 123.167969 480.167969 94.035156 485.097656 C 99.476562 477.472656 106.382812 465.230469 111.261719 447.539062 C 113.625 438.960938 138.1875 339.667969 153.285156 278.550781 C 149.636719 282.070312 146.1875 285.980469 143.113281 290.332031 C 128.019531 351.40625 106.832031 436.984375 104.699219 444.710938 C 103.386719 449.488281 101.800781 454.140625 99.945312 458.628906 C 94.027344 473.816406 85.136719 484.527344 73.910156 495.5 C 76.925781 495.484375 79.9375 495.34375 82.941406 495.082031 C 90.410156 494.417969 107.550781 493.226562 123.976562 483.609375 C 130.578125 479.484375 136.972656 473.957031 142.34375 466.503906 C 142.988281 465.609375 143.613281 464.691406 144.222656 463.761719 C 155.917969 445.972656 161.34375 422.667969 163.183594 414.746094 C 163.339844 414.082031 163.46875 413.519531 163.574219 413.082031 L 165.164062 406.578125 C 165.84375 409.050781 166.234375 411.738281 166.449219 414.8125 C 166.449219 414.8125 167.734375 429.859375 169.621094 450.980469 C 174.183594 502.132812 192.578125 503.082031 200.050781 505.171875 C 200.046875 505.179688 196.585938 503.402344 192.917969 498.941406 Z M 395.589844 171.347656 C 384.957031 171.347656 370.402344 173.078125 354.800781 179.917969 C 348.617188 182.617188 342.628906 185.980469 336.910156 189.96875 C 319.027344 202.769531 304.734375 219.144531 282.292969 252.542969 L 282.199219 252.6875 C 269.730469 272.96875 256.355469 295.582031 246.589844 312.09375 C 244.402344 315.789062 242.433594 319.117188 240.738281 321.96875 L 238.867188 310.800781 L 225.683594 232.246094 C 223.453125 232.28125 221.113281 232.457031 218.679688 232.773438 L 237.085938 342.445312 L 241.683594 334.875 C 243.820312 331.355469 247.503906 325.128906 252.167969 317.246094 C 261.90625 300.78125 275.238281 278.242188 287.65625 258.042969 C 309.480469 225.570312 323.277344 209.71875 340.328125 197.511719 C 360.003906 183.75 379.789062 180.335938 393.550781 180.039062 C 379.207031 196.648438 368.609375 219.15625 361.28125 248.484375 L 316.144531 430.125 C 314.726562 436.207031 313.75 440.890625 313.261719 445.449219 C 312.558594 452.054688 312.574219 457.667969 313.328125 462.675781 L 271.851562 462.679688 L 321.140625 263.644531 L 219.464844 434.515625 L 209.289062 374.25 C 207.402344 377.375 205.578125 380.554688 203.808594 383.78125 L 215.851562 455.117188 L 290.882812 329.027344 L 302.542969 309.433594 L 262.445312 471.347656 L 322.867188 471.347656 C 321.621094 467.382812 321.453125 466.707031 321.128906 465.5 C 319.621094 460.4375 319.308594 454.429688 320.144531 446.597656 C 320.574219 442.578125 321.480469 438.242188 322.789062 432.625 L 367.910156 251.0625 C 375.941406 218.910156 388.007812 195.519531 404.796875 179.550781 C 407.09375 177.292969 409.425781 175.09375 411.785156 172.941406 C 411.78125 172.9375 403.503906 171.46875 395.589844 171.347656 Z M 395.589844 171.347656 "/>
<path style=" stroke:none;fill-rule:nonzero;fill:rgb(25.490196%,45.490196%,55.294118%);fill-opacity:1;" d="M 196.859375 384.234375 C 197.085938 383.660156 197.347656 383.105469 197.636719 382.578125 L 197.648438 382.558594 C 199.285156 379.566406 203.976562 371.023438 208.125 365.0625 L 209.5625 362.996094 L 209.785156 362.675781 L 209.894531 362.515625 C 217.820312 351.113281 224.652344 341.371094 230.027344 339.117188 C 229.953125 339.089844 229.871094 339.085938 229.792969 339.0625 C 228.714844 338.894531 224.871094 338.980469 217.664062 346.019531 C 214.167969 349.761719 209.824219 355.03125 204.5625 362.453125 C 198.746094 370.65625 196.039062 376.3125 194.035156 379.554688 C 192.535156 381.96875 192.082031 383.308594 191.785156 385.5625 C 191.730469 385.976562 191.597656 392.511719 190.613281 395.847656 C 189.859375 398.390625 186.792969 403.925781 186.628906 404.265625 C 185.195312 407.257812 185.367188 408.710938 185.414062 410.371094 C 185.460938 412.03125 185.195312 434.089844 185.695312 458.632812 C 186.195312 483.175781 192.925781 498.941406 192.925781 498.941406 L 192.917969 498.941406 C 196.582031 503.398438 200.042969 505.175781 200.042969 505.175781 C 196.527344 497.507812 190.644531 475.429688 190.296875 458.484375 C 189.933594 440.792969 190.238281 425.355469 190.109375 416.28125 C 190.082031 414.289062 190.054688 412.296875 190.015625 410.304688 L 190.003906 409.785156 C 189.972656 408.953125 189.972656 408.707031 190.628906 407.125 C 190.703125 406.976562 190.769531 406.859375 190.871094 406.667969 C 192.570312 403.460938 194.238281 400.171875 194.929688 397.835938 C 195.863281 394.679688 196.175781 390.175781 196.34375 386.605469 C 196.347656 386.511719 196.355469 386.398438 196.367188 386.269531 C 196.449219 385.65625 196.550781 385.042969 196.855469 384.234375 Z M 196.859375 384.234375 "/>
<path style=" stroke:none;fill-rule:nonzero;fill:rgb(0%,63.921569%,87.843137%);fill-opacity:1;" d="M 120.214844 353.417969 C 97.605469 321.375 89.394531 275.8125 100.910156 236.042969 C 98.902344 236.144531 96.953125 236.257812 95.070312 236.390625 C 91.628906 249.34375 90.019531 263.191406 90.359375 277.128906 C 90.359375 277.199219 90.398438 278.300781 90.398438 278.300781 C 91.660156 310.859375 104.886719 339.253906 119.195312 357.296875 L 119.222656 357.335938 C 119.5625 356.035156 119.894531 354.726562 120.214844 353.417969 Z M 120.214844 353.417969 "/>
<path style=" stroke:none;fill-rule:nonzero;fill:rgb(25.490196%,45.490196%,55.294118%);fill-opacity:1;" d="M 313.019531 150.449219 L 259.054688 162.617188 L 313.1875 150.4375 C 313.1875 150.4375 258.828125 175.300781 246.871094 180.949219 C 234.914062 186.59375 235.195312 200.652344 235.195312 200.652344 L 258.554688 198.882812 C 276.53125 197.472656 282.566406 203.589844 282.566406 203.589844 L 240.398438 209.230469 L 227.019531 225.484375 C 192.777344 225.144531 118.730469 259.894531 126.246094 329.042969 L 127.453125 324.144531 L 127.457031 324.128906 L 128.605469 319.476562 C 128.648438 319.324219 128.6875 319.164062 128.734375 319.015625 L 129.027344 317.828125 L 130.574219 311.566406 C 130.988281 309.925781 131.40625 308.308594 131.785156 306.867188 C 132.964844 301.585938 134.578125 296.46875 136.601562 291.601562 C 145.777344 269.535156 164.386719 255.203125 177.886719 247.382812 C 191.144531 239.707031 206.078125 234.414062 218.679688 232.769531 C 221.003906 232.457031 223.339844 232.28125 225.679688 232.238281 C 225.957031 232.234375 226.246094 232.21875 226.519531 232.21875 L 229.199219 232.242188 L 243.644531 214.597656 L 294.644531 207.738281 C 292.710938 205.101562 283.085938 193.390625 264.074219 192.914062 C 262.214844 192.867188 260.25 192.996094 258.234375 193.152344 L 242.355469 194.367188 C 243.25 191.054688 245.503906 187.746094 248.773438 186.203125 C 260.570312 180.632812 323.542969 151.699219 324.085938 151.449219 L 329.136719 145.289062 Z M 313.019531 150.449219 "/>
<path style=" stroke:none;fill-rule:nonzero;fill:rgb(93.72549%,20%,25.098039%);fill-opacity:1;" d="M 107.054688 277.898438 C 107.316406 285.066406 108.167969 292.1875 109.597656 299.136719 C 108.0625 274.144531 111.546875 253.089844 118.746094 235.777344 C 116.867188 235.738281 114.988281 235.722656 113.105469 235.730469 C 108.566406 248.882812 106.527344 263.058594 107.054688 277.898438 Z M 199.445312 174.648438 C 198.90625 174.664062 198.363281 174.671875 197.828125 174.691406 C 174.15625 175.613281 152.230469 183.597656 136.511719 198.425781 C 134.003906 200.789062 131.609375 203.339844 129.34375 206.058594 C 126.59375 209.488281 124.050781 213.171875 121.738281 217.074219 C 124.53125 216.488281 127.277344 215.976562 129.96875 215.539062 C 146.570312 192.414062 171.621094 179.070312 199.445312 174.648438 Z M 199.445312 174.648438 "/>
<path style=" stroke:none;fill-rule:nonzero;fill:rgb(0%,0%,0%);fill-opacity:1;" d="M 258.554688 198.882812 L 235.199219 200.65625 C 235.199219 200.65625 234.914062 186.597656 246.871094 180.949219 C 258.828125 175.300781 313.1875 150.4375 313.1875 150.4375 L 259.054688 162.617188 L 247.382812 165.246094 C 238.105469 164.820312 230.617188 166.292969 230.617188 166.292969 C 226.449219 163.714844 222.027344 161.832031 217.464844 160.699219 C 216.140625 160.296875 214.808594 159.949219 213.46875 159.652344 C 207.175781 142.921875 194.816406 114.417969 175.265625 87.867188 C 169.933594 107.566406 177.449219 120.769531 167.054688 147.886719 C 165.890625 150.925781 164.824219 153.679688 162.480469 156.902344 C 153.488281 169.257812 148.503906 170.710938 139.382812 178.382812 C 124.355469 190.070312 113.484375 204.78125 106.347656 221.015625 C 111.4375 219.472656 116.570312 218.15625 121.734375 217.074219 C 124.046875 213.171875 126.589844 209.488281 129.339844 206.054688 C 131.605469 203.335938 134 200.789062 136.507812 198.421875 C 152.222656 183.59375 174.152344 175.613281 197.824219 174.6875 C 198.359375 174.667969 198.902344 174.660156 199.441406 174.648438 C 171.617188 179.070312 146.566406 192.414062 129.964844 215.535156 C 150.027344 212.273438 166.941406 212.992188 177.011719 214.765625 C 169.832031 218.0625 162.550781 222.214844 155.605469 227.238281 C 151.347656 230.308594 147.246094 233.714844 143.335938 237.4375 C 135.160156 236.476562 126.957031 235.921875 118.742188 235.777344 C 111.546875 253.089844 108.0625 274.144531 109.59375 299.136719 C 108.164062 292.1875 107.3125 285.066406 107.050781 277.898438 C 106.527344 263.054688 108.5625 248.882812 113.105469 235.730469 C 108.839844 235.742188 104.765625 235.859375 100.90625 236.042969 C 89.390625 275.8125 97.605469 321.375 120.214844 353.417969 C 122.203125 345.390625 124.246094 337.132812 126.246094 329.042969 C 118.730469 259.894531 192.777344 225.144531 227.015625 225.484375 L 240.398438 209.230469 L 282.5625 203.59375 C 282.566406 203.59375 276.53125 197.472656 258.554688 198.882812 Z M 180.753906 113.644531 C 180.738281 113.328125 180.738281 112.5 180.726562 111.675781 C 190.894531 128.898438 198.328125 145.628906 202.4375 155.667969 C 189.65625 155.769531 178.496094 159.636719 169.640625 164.347656 C 175.449219 154.523438 182.074219 137.242188 180.753906 113.644531 Z M 229.25 201.109375 L 219.058594 201.886719 C 219.058594 201.886719 221.171875 191.300781 234.632812 185.710938 C 234.632812 185.714844 230.398438 188.757812 229.25 201.109375 Z M 229.25 201.109375 "/>
<path style=" stroke:none;fill-rule:nonzero;fill:rgb(0%,63.921569%,87.843137%);fill-opacity:1;" d="M 180.726562 111.675781 C 180.738281 112.496094 180.734375 113.328125 180.753906 113.644531 C 182.070312 137.242188 175.445312 154.523438 169.640625 164.351562 C 178.496094 159.636719 189.652344 155.769531 202.433594 155.667969 C 198.328125 145.632812 190.894531 128.898438 180.726562 111.675781 Z M 180.726562 111.675781 "/>
<path style=" stroke:none;fill-rule:nonzero;fill:rgb(25.490196%,45.490196%,55.294118%);fill-opacity:1;" d="M 219.058594 201.886719 L 229.25 201.109375 C 230.398438 188.757812 234.632812 185.714844 234.632812 185.714844 C 221.171875 191.300781 219.058594 201.886719 219.058594 201.886719 Z M 113.105469 235.730469 C 114.953125 235.722656 116.835938 235.742188 118.746094 235.777344 C 126.496094 235.921875 134.753906 236.417969 143.339844 237.4375 C 147.25 233.714844 151.351562 230.308594 155.609375 227.238281 C 130.15625 225.851562 95.9375 227.445312 63.285156 240.71875 C 64.089844 240.527344 76.390625 237.703125 95.070312 236.390625 C 96.953125 236.257812 98.902344 236.144531 100.910156 236.046875 C 104.769531 235.859375 108.839844 235.742188 113.105469 235.730469 Z M 113.105469 235.730469 "/>
<path style=" stroke:none;fill-rule:nonzero;fill:rgb(0%,63.921569%,87.843137%);fill-opacity:1;" d="M 155.609375 227.242188 C 162.550781 222.21875 169.835938 218.066406 177.011719 214.769531 C 166.941406 212.992188 150.027344 212.273438 129.96875 215.539062 C 122.023438 216.828125 114.136719 218.65625 106.351562 221.015625 C 113.488281 204.78125 124.359375 190.066406 139.386719 178.382812 C 148.507812 170.710938 153.492188 169.257812 162.480469 156.902344 C 164.828125 153.679688 165.890625 150.925781 167.058594 147.886719 C 177.453125 120.769531 169.933594 107.566406 175.265625 87.867188 C 194.820312 114.421875 207.175781 142.921875 213.472656 159.652344 C 214.8125 159.953125 216.144531 160.300781 217.464844 160.699219 C 222.027344 161.832031 226.453125 163.714844 230.621094 166.292969 C 230.621094 166.292969 238.105469 164.820312 247.386719 165.246094 L 259.058594 162.617188 L 313.023438 150.453125 L 329.148438 145.292969 L 334.453125 138.910156 L 246.988281 158.484375 C 241.8125 158.300781 236.632812 158.589844 231.488281 159.34375 C 227.277344 156.921875 222.847656 155.136719 218.296875 154.03125 C 217.953125 153.9375 217.609375 153.835938 217.265625 153.738281 C 210.59375 136.457031 198.539062 109.65625 179.503906 83.796875 C 176.34375 79.820312 175.214844 78.589844 172.5 75.824219 C 171.394531 78.847656 169.804688 86.128906 169.804688 86.128906 C 168.09375 93.320312 167.527344 103.839844 167.472656 114.1875 C 167.621094 121.90625 166.828125 135.113281 161.882812 145.96875 C 158.507812 153.074219 153.378906 159.035156 145.648438 165.558594 C 145.042969 166.03125 144.425781 166.527344 143.792969 167.050781 C 139.917969 169.929688 133.402344 174.554688 128.46875 179.25 C 114.714844 191.578125 106.125 205.433594 99.285156 223.328125 C 87.464844 227.460938 75.265625 233.105469 63.230469 240.730469 L 63.28125 240.71875 C 95.9375 227.445312 130.15625 225.851562 155.609375 227.242188 Z M 155.609375 227.242188 "/>
<path style=" stroke:none;fill-rule:nonzero;fill:rgb(0%,0%,0%);fill-opacity:1;" d="M 199.824219 401.054688 C 200.757812 397.894531 201.191406 393.386719 201.355469 389.816406 C 201.363281 389.726562 201.367188 389.609375 201.378906 389.484375 C 201.472656 388.484375 201.714844 387.597656 202.683594 385.832031 C 202.96875 385.308594 203.351562 384.601562 203.804688 383.78125 C 205.574219 380.550781 207.402344 377.371094 209.285156 374.246094 L 219.460938 434.515625 L 321.136719 263.640625 L 271.851562 462.675781 L 313.324219 462.675781 C 312.570312 457.667969 312.554688 452.054688 313.261719 445.449219 C 313.75 440.890625 314.722656 436.207031 316.140625 430.121094 L 361.277344 248.484375 C 368.605469 219.15625 379.207031 196.648438 393.546875 180.039062 C 379.789062 180.335938 360.003906 183.746094 340.324219 197.507812 C 323.277344 209.714844 309.480469 225.566406 287.65625 258.042969 C 275.238281 278.238281 261.90625 300.78125 252.167969 317.246094 C 247.503906 325.128906 243.820312 331.355469 241.683594 334.871094 L 237.085938 342.445312 L 218.679688 232.773438 C 206.082031 234.417969 191.148438 239.710938 177.890625 247.386719 C 164.390625 255.207031 145.777344 269.539062 136.605469 291.609375 C 134.582031 296.472656 132.96875 301.589844 131.789062 306.871094 C 131.40625 308.3125 130.988281 309.933594 130.578125 311.570312 L 129.027344 317.832031 C 131.328125 310.503906 135.207031 303.679688 138.726562 297.304688 C 140.074219 294.875 141.539062 292.546875 143.113281 290.335938 C 146.1875 285.984375 149.636719 282.074219 153.285156 278.558594 C 138.1875 339.671875 113.625 438.964844 111.261719 447.542969 C 106.382812 465.234375 99.476562 477.476562 94.035156 485.101562 C 123.167969 480.171875 133.542969 465.769531 137.1875 460.710938 C 149.125 444.136719 154.691406 420.199219 156.519531 412.332031 C 156.683594 411.632812 191.539062 269.125 191.539062 269.125 L 204.085938 343.449219 C 201.597656 345.578125 198.902344 348.167969 195.988281 351.328125 C 190.566406 357.199219 189.015625 358.457031 184.832031 363.253906 C 180.707031 367.988281 177.261719 370.753906 173.675781 371.820312 L 168.546875 392.792969 L 167.339844 397.726562 C 170.480469 404.960938 171.023438 411.148438 171.308594 414.074219 C 172.03125 421.375 171.855469 429.511719 174.804688 454.203125 C 179.753906 495.636719 192.734375 498.898438 192.917969 498.945312 L 192.929688 498.945312 C 192.929688 498.945312 186.199219 483.179688 185.695312 458.636719 C 185.195312 434.09375 185.460938 412.035156 185.414062 410.375 C 185.367188 408.714844 185.195312 407.261719 186.632812 404.269531 C 186.792969 403.929688 189.863281 398.394531 190.613281 395.851562 C 191.597656 392.515625 191.734375 385.980469 191.789062 385.566406 C 192.085938 383.3125 192.535156 381.972656 194.035156 379.558594 C 196.042969 376.316406 198.746094 370.660156 204.5625 362.457031 C 209.824219 355.035156 214.167969 349.765625 217.664062 346.023438 C 224.871094 338.984375 228.714844 338.898438 229.792969 339.066406 C 229.871094 339.089844 229.953125 339.09375 230.03125 339.121094 C 224.652344 341.375 217.820312 351.117188 209.898438 362.519531 L 209.785156 362.679688 L 209.5625 363 L 208.125 365.066406 C 203.976562 371.027344 199.285156 379.570312 197.648438 382.5625 L 197.640625 382.582031 C 197.464844 382.902344 197.300781 383.230469 197.148438 383.566406 C 197.039062 383.804688 196.941406 384.03125 196.863281 384.238281 L 196.859375 384.246094 L 197.210938 386.351562 L 199.71875 401.394531 C 199.75 401.277344 199.792969 401.160156 199.824219 401.054688 Z M 199.824219 401.054688 "/>
<path style=" stroke:none;fill-rule:nonzero;fill:rgb(0%,63.921569%,87.843137%);fill-opacity:1;" d="M 334.019531 461.195312 L 333.988281 461.195312 L 332.648438 455.957031 L 330.605469 455.957031 L 330.605469 463.972656 L 331.78125 463.972656 L 331.78125 457.585938 L 331.816406 457.585938 L 333.429688 463.960938 L 334.5625 463.960938 L 336.234375 457.585938 L 336.261719 457.585938 L 336.261719 463.960938 L 337.441406 463.960938 L 337.441406 455.957031 L 335.410156 455.957031 Z M 324.890625 457.390625 L 326.625 457.390625 L 326.625 463.972656 L 327.800781 463.972656 L 327.800781 457.390625 L 329.554688 457.390625 L 329.554688 455.957031 L 324.890625 455.957031 Z M 324.890625 457.390625 "/>
</g>
</svg>
