<?xml version="1.0" encoding="UTF-8"?>
<svg xmlns="http://www.w3.org/2000/svg" xmlns:xlink="http://www.w3.org/1999/xlink" width="80px" height="100px" viewBox="0 0 80 100" version="1.1">
<g id="surface1">
<path style=" stroke:none;fill-rule:nonzero;fill:rgb(7.45098%,14.117647%,28.235294%);fill-opacity:1;" d="M 61.191406 71.246094 C 60.507812 72.269531 56.484375 77.21875 53.007812 80.195312 C 52.429688 69.8125 48.4375 63.128906 41.890625 57.433594 L 41.890625 57.4375 C 41.6875 62.980469 41.664062 67.84375 41.824219 71.246094 C 41.960938 74.191406 43.085938 75.980469 44.925781 77.855469 C 42.539062 78.535156 35.546875 78.40625 33.164062 77.472656 C 33.4375 77.21875 36.386719 75.175781 36.640625 68.523438 C 36.820312 63.738281 36.84375 60.207031 36.707031 54.371094 L 36.429688 52.875 C 33.246094 49.941406 30.464844 46.921875 26.886719 42.09375 C 30.160156 52.921875 26 66.386719 25.527344 71.332031 C 25.363281 72.992188 24.945312 76.363281 25.082031 79.8125 C 24.058594 79.046875 19.929688 75.679688 17.957031 72.441406 C 23.71875 60.121094 27.878906 48.023438 18.839844 37.023438 C 20.546875 33.824219 23.070312 30.96875 25.082031 29.734375 C 27.199219 37.363281 31.832031 43.417969 35.175781 46.054688 C 32.617188 34.203125 29.339844 30.332031 27.265625 29.007812 C 28.625 25.015625 33.128906 20.867188 35.515625 19.804688 C 34.425781 24.234375 34.332031 27.132812 35.410156 31.863281 C 36.503906 36.636719 38.210938 42.433594 40.117188 46.785156 C 41.140625 44.566406 44.757812 35.191406 45.707031 31.097656 C 46.667969 27.007812 46.667969 23.34375 46.253906 20.695312 C 48.335938 22.015625 52.804688 27.261719 53.828125 29.820312 C 51.644531 30.410156 50.621094 31.8125 49.324219 34.585938 C 47.992188 37.445312 44.617188 48.230469 42.746094 52.875 C 44.722656 55.011719 48.164062 57.691406 50.890625 61.789062 C 47.890625 47.035156 50.960938 35.824219 54.917969 32.464844 C 56.757812 33.140625 59.109375 35.015625 60.816406 37.238281 C 54.402344 40.605469 54.816406 50.835938 54.78125 51.59375 C 54.488281 57.460938 56.382812 67.886719 59.9375 70.425781 C 60.707031 70.980469 60.785156 71.019531 61.191406 71.246094 C 60.507812 72.269531 56.484375 77.21875 53.007812 80.195312 "/>
<path style=" stroke:none;fill-rule:nonzero;fill:rgb(7.45098%,14.117647%,28.235294%);fill-opacity:1;" d="M 61.28125 65.652344 L 60.609375 65.652344 L 60.609375 67.9375 L 60.15625 67.9375 L 60.15625 65.652344 L 59.484375 65.652344 L 59.484375 65.152344 L 61.28125 65.152344 Z M 64.328125 67.9375 L 63.875 67.9375 L 63.875 65.726562 L 63.863281 65.726562 L 63.21875 67.9375 L 62.777344 67.9375 L 62.15625 65.726562 L 62.140625 65.726562 L 62.140625 67.9375 L 61.691406 67.9375 L 61.691406 65.152344 L 62.476562 65.152344 L 62.996094 66.972656 L 63.007812 66.972656 L 63.546875 65.152344 L 64.328125 65.152344 Z M 64.328125 67.9375 "/>
</g>
</svg>
