<?xml version="1.0" encoding="UTF-8" standalone="no"?>
<svg
   xmlns:dc="http://purl.org/dc/elements/1.1/"
   xmlns:cc="http://creativecommons.org/ns#"
   xmlns:rdf="http://www.w3.org/1999/02/22-rdf-syntax-ns#"
   xmlns:svg="http://www.w3.org/2000/svg"
   xmlns="http://www.w3.org/2000/svg"
   xmlns:sodipodi="http://sodipodi.sourceforge.net/DTD/sodipodi-0.dtd"
   xmlns:inkscape="http://www.inkscape.org/namespaces/inkscape"
   viewBox="0 0 700.00001 700.00003"
   version="1.1"
   id="svg10"
   sodipodi:docname="texas-rangers-logo.svg"
   width="700"
   height="700"
   inkscape:export-filename="G:\Users\suitedoalex\sites\texas-rangers-logo-0.png"
   inkscape:export-xdpi="561.73712"
   inkscape:export-ydpi="561.73712"
   inkscape:version="0.92.4 (5da689c313, 2019-01-14)">
  <metadata
     id="metadata16">
    <rdf:RDF>
      <cc:Work
         rdf:about="">
        <dc:format>image/svg+xml</dc:format>
        <dc:type
           rdf:resource="http://purl.org/dc/dcmitype/StillImage" />
        <dc:title>Texas Rangers cap logo</dc:title>
      </cc:Work>
    </rdf:RDF>
  </metadata>
  <defs
     id="defs14" />
  <sodipodi:namedview
     pagecolor="#ffffff"
     bordercolor="#666666"
     borderopacity="1"
     objecttolerance="10"
     gridtolerance="10"
     guidetolerance="10"
     inkscape:pageopacity="0"
     inkscape:pageshadow="2"
     inkscape:window-width="1600"
     inkscape:window-height="837"
     id="namedview12"
     showgrid="false"
     inkscape:zoom="0.56289198"
     inkscape:cx="-64.012752"
     inkscape:cy="226.75531"
     inkscape:window-x="-8"
     inkscape:window-y="-8"
     inkscape:window-maximized="1"
     inkscape:current-layer="svg10" />
  <title
     id="title2">Texas Rangers cap logo</title>
  <path
     d="m 210.07589,258.04378 -0.10211,12.6477 h -49.7447 l 18.35156,23.13639 h 53.31874 l 0.0437,-9.11743 c 0,-50.71625 4.81401,-82.85337 57.85557,-88.63601 v -6.72501 c -57.25746,0.19839 -79.69655,19.25601 -79.72281,68.69436 m 171.62067,88.7498 v 111.48939 c 0,5.75638 1.32458,11.36981 16.95113,11.36981 h 7.89496 V 357.22392 c 0,-22.79504 31.56819,-31.50984 31.56819,-31.50984 0,0 -7.73741,-3.08096 -15.60028,-8.66521 l -13.63384,3.87455 c -0.28301,0.0583 -27.18016,7.92122 -27.18016,25.87016 M 516.17939,134.61566 v 136.07582 h -36.92778 l 19.74616,24.70313 h 40.77315 V 159.48801 M 381.69656,281.94458 c 0,13.82056 20.01459,24.67687 27.73741,27.64113 l 7.52152,2.93217 c -5.74179,-5.24289 -10.41575,-12.02626 -10.41575,-20.08753 V 197.5799 l 4.47556,0.31219 c 13.42086,0 26.11232,4.56017 36.69729,12.283 -14.16192,-13.16411 -36.42595,-20.23049 -66.01603,-20.45806 v 92.22463 z M 254.3939,540.51198 v 0.22757 l 19.40189,25.49964 h 175.49813 v -58.74834 l -20.8315,-24.21591 v 57.23704"
     id="path4"
     inkscape:connector-curvature="0"
     style="fill:#003278;stroke-width:2.91757774"
     inkscape:export-filename="G:\Users\suitedoalex\sites\texas-rangers-logo-4.png"
     inkscape:export-xdpi="101.17461"
     inkscape:export-ydpi="101.17461" />
  <path
     d="M 161.48364,258.75567 H 198.391 c 0,-0.37053 0.0729,-0.62728 0.0729,-0.9132 0,-0.9132 -0.07,-1.25456 -0.2976,-0.40262 0,-55.41647 28.44638,-80.05834 92.19546,-80.05834 h 11.37271 V 281.9475 c 0,17.12034 -11.56527,27.20641 -20.85484,32.96279 9.35959,5.26914 20.86068,14.70459 20.86068,31.85411 v 110.54702 c 0,14.95842 -10.64916,24.24507 -27.81327,24.24507 H 254.8753 v 47.0722 h 161.66298 v -47.06345 h -17.88476 c -23.85995,0 -28.87526,-12.62436 -28.87526,-23.28227 V 346.76732 c 0,-17.09701 13.43544,-26.78336 23.93581,-32.05543 -10.37199,-6.17943 -23.93289,-16.83442 -23.93289,-32.76439 v -98.63747 l 4.43471,-5.7272 h 5.96645 c 61.77095,0 97.21369,28.06709 97.21369,77.01238 0,0 -0.0117,2.19402 -0.0583,4.16046 h 26.92924 V 133.76081 H 161.48364 Z"
     id="path6"
     inkscape:connector-curvature="0"
     style="fill:#c0111f;stroke-width:2.91757774"
     inkscape:export-filename="G:\Users\suitedoalex\sites\texas-rangers-logo-4.png"
     inkscape:export-xdpi="101.17461"
     inkscape:export-ydpi="101.17461" />
  <path
     d="m 457.10136,545.04298 h 6.26695 v 17.03865 h 4.21882 v -17.03865 h 6.19694 v -3.67615 h -16.67979 m 32.76147,13.53464 h -0.1167 l -4.82567,-13.53756 h -7.31145 v 20.7148 h 4.23049 v -16.49598 h 0.0992 l 5.77097,16.4989 h 4.10212 l 5.99854,-16.4989 h 0.0875 v 16.4989 h 4.24216 v -20.7148 h -7.29394"
     id="path8"
     inkscape:connector-curvature="0"
     style="fill:#003278;stroke-width:2.91757774"
     inkscape:export-filename="G:\Users\suitedoalex\sites\texas-rangers-logo-4.png"
     inkscape:export-xdpi="101.17461"
     inkscape:export-ydpi="101.17461" />
</svg>
