<?xml version="1.0" encoding="UTF-8"?>
<svg xmlns="http://www.w3.org/2000/svg" xmlns:xlink="http://www.w3.org/1999/xlink" width="465px" height="581px" viewBox="0 0 465 581" version="1.1">
<g id="surface1">
<path style=" stroke:none;fill-rule:nonzero;fill:rgb(0%,19.607843%,47.058824%);fill-opacity:1;" d="M 139.550781 214.175781 L 139.484375 224.675781 L 106.4375 224.675781 L 118.628906 243.878906 L 154.046875 243.878906 L 154.078125 236.308594 C 154.078125 194.214844 157.273438 167.542969 192.507812 162.742188 L 192.507812 157.160156 C 154.472656 157.324219 139.566406 173.140625 139.550781 214.175781 M 253.554688 287.839844 L 253.554688 380.375 C 253.554688 385.152344 254.433594 389.8125 264.816406 389.8125 L 270.058594 389.8125 L 270.058594 296.496094 C 270.058594 277.574219 291.03125 270.34375 291.03125 270.34375 C 291.03125 270.34375 285.890625 267.785156 280.667969 263.152344 L 271.609375 266.367188 C 271.421875 266.414062 253.554688 272.941406 253.554688 287.839844 M 342.890625 111.730469 L 342.890625 224.675781 L 318.359375 224.675781 L 331.476562 245.175781 L 358.5625 245.175781 L 358.5625 132.375 M 253.554688 234.015625 C 253.554688 245.484375 266.851562 254.496094 271.980469 256.957031 L 276.976562 259.390625 C 273.164062 255.039062 270.058594 249.40625 270.058594 242.71875 L 270.058594 163.992188 L 273.03125 164.25 C 281.945312 164.25 290.378906 168.035156 297.410156 174.445312 C 288 163.519531 273.210938 157.652344 253.554688 157.464844 Z M 168.988281 448.625 L 168.988281 448.8125 L 181.878906 469.976562 L 298.460938 469.976562 L 298.460938 421.21875 L 284.621094 401.117188 L 284.621094 448.625 "/>
<path style=" stroke:none;fill-rule:nonzero;fill:rgb(75.294118%,6.666667%,12.156863%);fill-opacity:1;" d="M 107.269531 214.765625 L 131.789062 214.765625 C 131.789062 214.460938 131.835938 214.246094 131.835938 214.007812 C 131.835938 213.25 131.789062 212.96875 131.640625 213.675781 C 131.640625 167.679688 150.535156 147.226562 192.882812 147.226562 L 200.4375 147.226562 L 200.4375 234.015625 C 200.4375 248.226562 192.753906 256.597656 186.585938 261.375 C 192.800781 265.75 200.441406 273.582031 200.441406 287.8125 L 200.441406 379.570312 C 200.441406 391.984375 193.367188 399.691406 181.964844 399.691406 L 169.308594 399.691406 L 169.308594 438.761719 L 276.699219 438.761719 L 276.699219 399.699219 L 264.820312 399.699219 C 248.96875 399.699219 245.636719 389.222656 245.636719 380.375 L 245.636719 287.816406 C 245.636719 273.625 254.5625 265.585938 261.539062 261.210938 C 254.648438 256.082031 245.640625 247.238281 245.640625 234.015625 L 245.640625 152.148438 L 248.585938 147.394531 L 252.550781 147.394531 C 293.582031 147.394531 317.128906 170.6875 317.128906 211.3125 C 317.128906 211.3125 317.121094 213.136719 317.089844 214.765625 L 334.976562 214.765625 L 334.976562 111.019531 L 107.269531 111.019531 Z M 107.269531 214.765625 "/>
<path style=" stroke:none;fill-rule:nonzero;fill:rgb(0%,19.607843%,47.058824%);fill-opacity:1;" d="M 303.644531 452.386719 L 307.808594 452.386719 L 307.808594 466.527344 L 310.613281 466.527344 L 310.613281 452.386719 L 314.726562 452.386719 L 314.726562 449.335938 L 303.648438 449.335938 M 325.410156 460.566406 L 325.332031 460.566406 L 322.128906 449.332031 L 317.269531 449.332031 L 317.269531 466.523438 L 320.082031 466.523438 L 320.082031 452.832031 L 320.148438 452.832031 L 323.980469 466.527344 L 326.707031 466.527344 L 330.691406 452.832031 L 330.75 452.832031 L 330.75 466.527344 L 333.566406 466.527344 L 333.566406 449.335938 L 328.722656 449.335938 "/>
</g>
</svg>
