<?xml version="1.0" encoding="UTF-8"?>
<svg xmlns="http://www.w3.org/2000/svg" xmlns:xlink="http://www.w3.org/1999/xlink" width="304px" height="324px" viewBox="0 0 304 304" version="1.1">
<g id="surface1">
<path style=" stroke:none;fill-rule:nonzero;fill:rgb(93.72549%,20%,25.098039%);fill-opacity:1;" d="M 161.210938 163.296875 C 167.59375 154.65625 176.339844 142.824219 184.492188 132.214844 L 184.554688 132.136719 C 199.222656 114.664062 208.566406 106.09375 220.257812 99.394531 C 223.996094 97.308594 227.910156 95.550781 231.953125 94.136719 C 226.265625 95.699219 220.261719 98.003906 214.257812 101.367188 C 213.050781 102.054688 211.863281 102.769531 210.6875 103.511719 C 199.796875 109.976562 190.449219 117.15625 176.429688 135.070312 C 176.3125 135.21875 176.160156 135.417969 176.046875 135.574219 C 169.421875 144.589844 162.792969 153.605469 156.160156 162.617188 L 157.386719 168.464844 C 158.492188 166.972656 159.78125 165.230469 161.210938 163.296875 Z M 124.914062 182.878906 C 126.191406 181.835938 127.492188 180.824219 128.816406 179.84375 L 124.414062 158.96875 L 121.753906 167.679688 Z M 132.507812 201.878906 C 131.875 202.804688 131.714844 203.265625 131.65625 203.789062 C 131.648438 203.847656 131.644531 203.90625 131.640625 203.964844 C 131.53125 205.832031 131.246094 208.191406 130.636719 209.84375 C 130.617188 209.898438 130.589844 209.960938 130.566406 210.019531 L 128.925781 202.148438 L 137.4375 243.03125 L 141.113281 238.128906 L 133.238281 200.804688 Z M 197.789062 161.90625 L 190.167969 172.15625 L 165.371094 251.113281 L 206.570312 251.125 L 211.074219 246.625 L 171.574219 246.625 Z M 81.050781 253.042969 C 70.3125 258.078125 59.105469 258.699219 54.222656 259.046875 C 52.230469 259.191406 50.265625 259.25 48.320312 259.265625 C 55.660156 253.523438 61.472656 247.917969 65.339844 239.972656 C 66.550781 237.625 67.589844 235.191406 68.449219 232.691406 C 69.839844 228.648438 83.691406 183.871094 93.558594 151.914062 C 92.53125 153.070312 91.574219 154.289062 90.691406 155.558594 C 88.390625 158.894531 85.855469 162.46875 84.351562 166.300781 L 84.164062 166.921875 C 84.132812 167 84.105469 167.085938 84.078125 167.164062 L 83.328125 169.597656 L 83.328125 169.601562 L 82.535156 172.167969 C 81.230469 176.398438 79.894531 180.71875 78.59375 184.921875 L 77.953125 186.980469 L 77.925781 186.949219 C 70.6875 210.269531 64.738281 229.332031 63.910156 231.855469 C 59.011719 246.730469 48.300781 253.8125 34.789062 264 C 39.621094 264.085938 44.824219 264.195312 49.808594 263.796875 C 56.722656 263.25 76.3125 262.054688 89.308594 248.601562 C 89.8125 248.101562 90.304688 247.589844 90.78125 247.0625 C 92.035156 245.664062 93.203125 244.191406 94.285156 242.660156 C 93.886719 243.144531 93.480469 243.625 93.058594 244.09375 C 89.546875 247.996094 85.367188 250.886719 81.050781 253.042969 Z M 81.050781 253.042969 "/>
<path style=" stroke:none;fill-rule:nonzero;fill:rgb(0%,63.921569%,87.843137%);fill-opacity:1;" d="M 126.125 261.0625 C 126.003906 261.039062 117.515625 259.335938 114.28125 237.65625 C 112.351562 224.734375 112.46875 220.476562 111.996094 216.65625 C 111.808594 215.125 111.453125 211.890625 109.398438 208.101562 L 110.191406 205.523438 L 110.183594 205.515625 L 121.75 167.679688 L 124.414062 158.96875 L 128.820312 179.84375 C 127.492188 180.824219 126.191406 181.835938 124.917969 182.878906 C 122.117188 185.167969 119.96875 187.136719 118.914062 187.984375 C 117.164062 189.390625 115.925781 190.214844 114.730469 190.65625 L 113.542969 194.546875 C 115.886719 193.988281 118.140625 192.542969 120.835938 190.066406 C 123.570312 187.554688 124.585938 186.898438 128.128906 183.824219 C 130.035156 182.171875 131.796875 180.816406 133.425781 179.703125 L 125.222656 140.8125 C 125.222656 140.8125 102.433594 215.378906 102.328125 215.746094 C 101.132812 219.859375 97.492188 232.386719 89.6875 241.058594 C 87.304688 243.703125 80.523438 251.242188 61.476562 253.820312 C 65.035156 249.832031 69.550781 243.425781 72.738281 234.167969 C 74.285156 229.679688 90.34375 177.726562 100.210938 145.75 C 97.828125 147.589844 95.570312 149.632812 93.5625 151.910156 C 83.695312 183.867188 69.839844 228.648438 68.449219 232.691406 C 67.589844 235.1875 66.550781 237.621094 65.339844 239.96875 C 61.472656 247.917969 55.660156 253.523438 48.320312 259.261719 C 50.289062 259.253906 52.257812 259.179688 54.222656 259.046875 C 59.109375 258.699219 70.3125 258.074219 81.050781 253.039062 C 85.367188 250.882812 89.546875 247.992188 93.058594 244.089844 C 93.480469 243.621094 93.886719 243.144531 94.289062 242.65625 C 101.933594 233.347656 105.480469 221.15625 106.683594 217.007812 C 106.785156 216.664062 106.871094 216.367188 106.9375 216.140625 L 107.980469 212.734375 C 108.421875 214.03125 108.675781 215.4375 108.816406 217.042969 C 108.816406 217.042969 109.660156 224.917969 110.890625 235.96875 C 113.875 262.734375 125.902344 263.230469 130.785156 264.324219 C 130.78125 264.328125 128.519531 263.398438 126.125 261.0625 Z M 258.621094 89.65625 C 251.671875 89.65625 242.15625 90.5625 231.953125 94.140625 C 227.910156 95.550781 224 97.3125 220.261719 99.398438 C 208.566406 106.097656 199.222656 114.664062 184.554688 132.140625 L 184.492188 132.214844 C 176.339844 142.824219 167.597656 154.660156 161.210938 163.300781 C 159.78125 165.230469 158.496094 166.972656 157.386719 168.464844 L 156.160156 162.621094 L 147.542969 121.519531 C 146.085938 121.539062 144.554688 121.628906 142.964844 121.796875 L 155 179.179688 L 158.003906 175.21875 C 159.402344 173.378906 161.808594 170.121094 164.855469 165.996094 C 171.226562 157.378906 179.941406 145.585938 188.058594 135.019531 C 202.328125 118.027344 211.347656 109.730469 222.496094 103.34375 C 235.359375 96.144531 248.292969 94.359375 257.289062 94.203125 C 247.914062 102.894531 240.984375 114.671875 236.191406 130.015625 L 206.683594 225.054688 C 205.757812 228.238281 205.117188 230.691406 204.800781 233.074219 C 204.339844 236.53125 204.347656 239.46875 204.84375 242.089844 L 177.726562 242.089844 L 209.949219 137.949219 L 143.476562 227.355469 L 136.824219 195.820312 C 135.59375 197.457031 134.398438 199.117188 133.242188 200.808594 L 141.117188 238.132812 L 190.167969 172.160156 L 197.789062 161.90625 L 171.578125 246.625 L 211.078125 246.625 C 210.265625 244.550781 210.152344 244.199219 209.941406 243.566406 C 208.957031 240.917969 208.753906 237.773438 209.296875 233.675781 C 209.578125 231.574219 210.171875 229.304688 211.027344 226.363281 L 240.523438 131.363281 C 245.777344 114.542969 253.664062 102.300781 264.640625 93.945312 C 266.144531 92.765625 267.667969 91.613281 269.210938 90.488281 C 269.207031 90.488281 263.796875 89.71875 258.621094 89.65625 Z M 258.621094 89.65625 "/>
<path style=" stroke:none;fill-rule:nonzero;fill:rgb(25.490196%,45.490196%,55.294118%);fill-opacity:1;" d="M 128.699219 201.046875 C 128.847656 200.746094 129.019531 200.453125 129.207031 200.179688 L 129.214844 200.167969 C 130.285156 198.601562 133.351562 194.132812 136.0625 191.011719 L 137.003906 189.929688 L 137.148438 189.765625 L 137.222656 189.679688 C 142.402344 183.714844 146.867188 178.617188 150.382812 177.4375 C 150.332031 177.425781 150.28125 177.421875 150.230469 177.410156 C 149.523438 177.320312 147.011719 177.367188 142.300781 181.050781 C 140.015625 183.007812 137.175781 185.765625 133.734375 189.648438 C 129.933594 193.941406 128.164062 196.898438 126.851562 198.597656 C 125.871094 199.859375 125.578125 200.558594 125.382812 201.738281 C 125.347656 201.957031 125.257812 205.378906 124.613281 207.121094 C 124.125 208.453125 122.117188 211.347656 122.011719 211.527344 C 121.074219 213.089844 121.1875 213.851562 121.21875 214.71875 C 121.246094 215.589844 121.074219 227.132812 121.402344 239.972656 C 121.730469 252.816406 126.128906 261.0625 126.128906 261.0625 L 126.121094 261.0625 C 128.519531 263.394531 130.78125 264.328125 130.78125 264.328125 C 128.480469 260.3125 124.636719 248.761719 124.410156 239.894531 C 124.171875 230.640625 124.371094 222.5625 124.285156 217.8125 C 124.269531 216.769531 124.25 215.730469 124.222656 214.6875 L 124.214844 214.414062 C 124.199219 213.980469 124.195312 213.851562 124.628906 213.023438 C 124.675781 212.945312 124.71875 212.882812 124.785156 212.78125 C 125.894531 211.105469 126.988281 209.382812 127.4375 208.164062 C 128.046875 206.511719 128.253906 204.152344 128.363281 202.285156 C 128.367188 202.238281 128.371094 202.175781 128.378906 202.109375 C 128.433594 201.789062 128.5 201.46875 128.699219 201.046875 Z M 128.699219 201.046875 "/>
<path style=" stroke:none;fill-rule:nonzero;fill:rgb(0%,63.921569%,87.843137%);fill-opacity:1;" d="M 78.59375 184.921875 C 63.8125 168.15625 58.441406 144.316406 65.96875 123.507812 C 64.65625 123.558594 63.382812 123.617188 62.152344 123.6875 C 59.902344 130.464844 58.851562 137.710938 59.074219 145.003906 C 59.074219 145.039062 59.097656 145.617188 59.097656 145.617188 C 59.921875 162.652344 68.570312 177.511719 77.925781 186.949219 L 77.945312 186.96875 C 78.167969 186.289062 78.382812 185.605469 78.59375 184.921875 Z M 78.59375 184.921875 "/>
<path style=" stroke:none;fill-rule:nonzero;fill:rgb(25.490196%,45.490196%,55.294118%);fill-opacity:1;" d="M 204.640625 78.722656 L 169.359375 85.085938 L 204.75 78.714844 C 204.75 78.714844 169.210938 91.722656 161.394531 94.679688 C 153.578125 97.632812 153.761719 104.988281 153.761719 104.988281 L 169.03125 104.0625 C 180.785156 103.324219 184.730469 106.527344 184.730469 106.527344 L 157.164062 109.476562 L 148.417969 117.980469 C 126.03125 117.804688 77.621094 135.984375 82.535156 172.167969 L 83.324219 169.601562 L 83.328125 169.597656 L 84.078125 167.160156 C 84.105469 167.082031 84.132812 166.996094 84.160156 166.917969 L 84.351562 166.300781 L 85.363281 163.023438 C 85.636719 162.164062 85.90625 161.320312 86.15625 160.5625 C 86.929688 157.800781 87.984375 155.125 89.304688 152.578125 C 95.304688 141.03125 107.46875 133.53125 116.296875 129.441406 C 124.964844 125.421875 134.726562 122.652344 142.964844 121.792969 C 144.484375 121.628906 146.011719 121.539062 147.539062 121.515625 C 147.722656 121.515625 147.910156 121.503906 148.089844 121.503906 L 149.84375 121.515625 L 159.285156 112.285156 L 192.628906 108.695312 C 191.363281 107.316406 185.070312 101.1875 172.640625 100.941406 C 171.425781 100.917969 170.140625 100.980469 168.824219 101.066406 L 158.441406 101.699219 C 159.027344 99.96875 160.503906 98.238281 162.640625 97.429688 C 170.351562 94.511719 211.519531 79.375 211.875 79.242188 L 215.179688 76.019531 Z M 204.640625 78.722656 "/>
<path style=" stroke:none;fill-rule:nonzero;fill:rgb(93.72549%,20%,25.098039%);fill-opacity:1;" d="M 69.988281 145.40625 C 70.160156 149.15625 70.714844 152.882812 71.652344 156.519531 C 70.648438 143.441406 72.925781 132.425781 77.632812 123.367188 C 76.402344 123.347656 75.175781 123.339844 73.945312 123.34375 C 70.976562 130.226562 69.644531 137.640625 69.988281 145.40625 Z M 130.390625 91.382812 C 130.035156 91.390625 129.683594 91.394531 129.332031 91.40625 C 113.855469 91.886719 99.523438 96.066406 89.246094 103.824219 C 87.605469 105.0625 86.042969 106.394531 84.558594 107.816406 C 82.761719 109.613281 81.101562 111.539062 79.585938 113.582031 C 81.414062 113.273438 83.210938 113.007812 84.96875 112.777344 C 95.820312 100.679688 112.199219 93.695312 130.390625 91.382812 Z M 130.390625 91.382812 "/>
<path style=" stroke:none;fill-rule:nonzero;fill:rgb(0%,0%,0%);fill-opacity:1;" d="M 169.035156 104.0625 L 153.765625 104.988281 C 153.765625 104.988281 153.578125 97.632812 161.394531 94.679688 C 169.210938 91.722656 204.75 78.714844 204.75 78.714844 L 169.359375 85.089844 L 161.730469 86.460938 C 155.664062 86.238281 150.769531 87.007812 150.769531 87.007812 C 148.042969 85.660156 145.152344 84.675781 142.167969 84.082031 C 141.304688 83.875 140.433594 83.691406 139.558594 83.535156 C 135.445312 74.78125 127.363281 59.867188 114.582031 45.976562 C 111.097656 56.28125 116.011719 63.191406 109.214844 77.378906 C 108.453125 78.972656 107.757812 80.410156 106.222656 82.097656 C 100.34375 88.5625 97.085938 89.320312 91.125 93.335938 C 81.300781 99.449219 74.191406 107.148438 69.527344 115.644531 C 72.851562 114.835938 76.207031 114.148438 79.585938 113.582031 C 81.097656 111.539062 82.761719 109.613281 84.558594 107.816406 C 86.039062 106.394531 87.605469 105.058594 89.242188 103.824219 C 99.519531 96.0625 113.855469 91.886719 129.328125 91.402344 C 129.679688 91.390625 130.035156 91.386719 130.386719 91.382812 C 112.199219 93.695312 95.820312 100.675781 84.964844 112.777344 C 98.082031 111.070312 109.140625 111.445312 115.722656 112.375 C 111.03125 114.097656 106.269531 116.269531 101.730469 118.898438 C 98.945312 120.503906 96.265625 122.289062 93.707031 124.238281 C 88.363281 123.734375 83 123.441406 77.628906 123.367188 C 72.925781 132.425781 70.644531 143.441406 71.648438 156.519531 C 70.714844 152.882812 70.15625 149.15625 69.988281 145.40625 C 69.644531 137.640625 70.972656 130.222656 73.945312 123.34375 C 71.15625 123.347656 68.492188 123.410156 65.96875 123.507812 C 58.441406 144.316406 63.808594 168.15625 78.589844 184.921875 C 79.894531 180.71875 81.226562 176.398438 82.535156 172.167969 C 77.621094 135.988281 126.03125 117.804688 148.414062 117.980469 L 157.164062 109.476562 L 184.730469 106.527344 C 184.730469 106.527344 180.785156 103.324219 169.035156 104.0625 Z M 118.171875 59.460938 C 118.160156 59.296875 118.160156 58.863281 118.152344 58.433594 C 124.800781 67.445312 129.660156 76.199219 132.347656 81.449219 C 123.988281 81.503906 116.695312 83.527344 110.90625 85.992188 C 114.703125 80.851562 119.03125 71.808594 118.171875 59.460938 Z M 149.875 105.226562 L 143.210938 105.632812 C 143.210938 105.632812 144.59375 100.09375 153.394531 97.171875 C 153.394531 97.171875 150.628906 98.765625 149.875 105.226562 Z M 149.875 105.226562 "/>
<path style=" stroke:none;fill-rule:nonzero;fill:rgb(0%,63.921569%,87.843137%);fill-opacity:1;" d="M 118.152344 58.433594 C 118.160156 58.863281 118.160156 59.296875 118.167969 59.460938 C 119.03125 71.808594 114.699219 80.851562 110.902344 85.992188 C 116.695312 83.527344 123.988281 81.503906 132.34375 81.449219 C 129.660156 76.199219 124.800781 67.445312 118.152344 58.433594 Z M 118.152344 58.433594 "/>
<path style=" stroke:none;fill-rule:nonzero;fill:rgb(25.490196%,45.490196%,55.294118%);fill-opacity:1;" d="M 143.210938 105.636719 L 149.875 105.226562 C 150.628906 98.765625 153.394531 97.171875 153.394531 97.171875 C 144.59375 100.09375 143.210938 105.636719 143.210938 105.636719 Z M 73.945312 123.34375 C 75.152344 123.339844 76.382812 123.347656 77.632812 123.367188 C 82.699219 123.441406 88.097656 123.703125 93.710938 124.238281 C 96.265625 122.289062 98.945312 120.507812 101.730469 118.898438 C 85.089844 118.175781 62.71875 119.007812 41.371094 125.953125 C 41.898438 125.851562 49.941406 124.375 62.152344 123.6875 C 63.382812 123.621094 64.660156 123.558594 65.96875 123.507812 C 68.492188 123.410156 71.15625 123.347656 73.945312 123.34375 Z M 73.945312 123.34375 "/>
<path style=" stroke:none;fill-rule:nonzero;fill:rgb(0%,63.921569%,87.843137%);fill-opacity:1;" d="M 101.730469 118.902344 C 106.269531 116.273438 111.03125 114.101562 115.726562 112.375 C 109.140625 111.445312 98.082031 111.070312 84.96875 112.777344 C 79.773438 113.453125 74.621094 114.410156 69.527344 115.644531 C 74.195312 107.148438 81.300781 99.449219 91.125 93.335938 C 97.085938 89.320312 100.347656 88.5625 106.226562 82.097656 C 107.757812 80.410156 108.453125 78.972656 109.214844 77.378906 C 116.011719 63.191406 111.097656 56.28125 114.582031 45.976562 C 127.367188 59.867188 135.445312 74.78125 139.558594 83.535156 C 140.4375 83.691406 141.304688 83.875 142.171875 84.082031 C 145.15625 84.675781 148.046875 85.660156 150.773438 87.007812 C 150.773438 87.007812 155.664062 86.238281 161.730469 86.460938 L 169.363281 85.089844 L 204.644531 78.722656 L 215.183594 76.023438 L 218.652344 72.683594 L 161.472656 82.925781 C 158.085938 82.828125 154.703125 82.980469 151.339844 83.375 C 148.585938 82.105469 145.691406 81.171875 142.714844 80.59375 C 142.488281 80.546875 142.265625 80.492188 142.039062 80.441406 C 137.679688 71.398438 129.796875 57.375 117.351562 43.84375 C 115.289062 41.765625 114.550781 41.121094 112.773438 39.671875 C 112.050781 41.253906 111.011719 45.066406 111.011719 45.066406 C 109.894531 48.828125 109.523438 54.332031 109.484375 59.746094 C 109.582031 63.785156 109.066406 70.695312 105.832031 76.375 C 103.628906 80.09375 100.273438 83.210938 95.222656 86.625 C 94.824219 86.875 94.421875 87.132812 94.007812 87.40625 C 91.472656 88.914062 87.214844 91.332031 83.988281 93.789062 C 74.996094 100.238281 69.378906 107.492188 64.910156 116.851562 C 57.183594 119.015625 49.207031 121.96875 41.339844 125.957031 L 41.371094 125.953125 C 62.71875 119.007812 85.089844 118.175781 101.730469 118.902344 Z M 101.730469 118.902344 "/>
<path style=" stroke:none;fill-rule:nonzero;fill:rgb(0%,0%,0%);fill-opacity:1;" d="M 130.636719 209.847656 C 131.246094 208.191406 131.53125 205.835938 131.640625 203.964844 C 131.644531 203.917969 131.648438 203.859375 131.65625 203.792969 C 131.714844 203.269531 131.875 202.804688 132.507812 201.878906 C 132.695312 201.605469 132.945312 201.238281 133.238281 200.808594 C 134.394531 199.117188 135.589844 197.453125 136.824219 195.820312 L 143.476562 227.355469 L 209.945312 137.945312 L 177.726562 242.089844 L 204.839844 242.089844 C 204.347656 239.46875 204.335938 236.53125 204.796875 233.074219 C 205.117188 230.6875 205.753906 228.238281 206.679688 225.054688 L 236.191406 130.015625 C 240.980469 114.667969 247.910156 102.890625 257.289062 94.203125 C 248.292969 94.359375 235.355469 96.144531 222.492188 103.34375 C 211.347656 109.730469 202.328125 118.023438 188.058594 135.015625 C 179.941406 145.585938 171.226562 157.378906 164.855469 165.992188 C 161.808594 170.117188 159.402344 173.375 158.003906 175.21875 L 155 179.179688 L 142.964844 121.792969 C 134.726562 122.65625 124.964844 125.425781 116.296875 129.441406 C 107.472656 133.535156 95.304688 141.03125 89.308594 152.578125 C 87.984375 155.125 86.929688 157.800781 86.160156 160.566406 C 85.910156 161.320312 85.636719 162.167969 85.367188 163.023438 L 84.355469 166.300781 C 85.859375 162.46875 88.394531 158.894531 90.691406 155.558594 C 91.574219 154.289062 92.535156 153.070312 93.5625 151.914062 C 95.570312 149.636719 97.828125 147.589844 100.210938 145.75 C 90.34375 177.726562 74.285156 229.683594 72.738281 234.171875 C 69.550781 243.425781 65.035156 249.832031 61.476562 253.824219 C 80.523438 251.242188 87.304688 243.707031 89.6875 241.0625 C 97.492188 232.386719 101.132812 219.863281 102.328125 215.746094 C 102.433594 215.382812 125.222656 140.816406 125.222656 140.816406 L 133.425781 179.703125 C 131.796875 180.816406 130.035156 182.175781 128.128906 183.828125 C 124.585938 186.898438 123.574219 187.558594 120.835938 190.066406 C 118.136719 192.542969 115.886719 193.992188 113.542969 194.550781 L 110.191406 205.523438 L 109.398438 208.105469 C 111.453125 211.890625 111.808594 215.128906 111.996094 216.65625 C 112.46875 220.480469 112.351562 224.734375 114.28125 237.65625 C 117.515625 259.335938 126.003906 261.042969 126.125 261.066406 L 126.128906 261.066406 C 126.128906 261.066406 121.730469 252.816406 121.402344 239.976562 C 121.074219 227.132812 121.246094 215.589844 121.21875 214.722656 C 121.1875 213.855469 121.074219 213.09375 122.011719 211.527344 C 122.121094 211.351562 124.125 208.453125 124.617188 207.125 C 125.261719 205.378906 125.347656 201.960938 125.382812 201.742188 C 125.578125 200.5625 125.871094 199.859375 126.851562 198.597656 C 128.164062 196.902344 129.933594 193.941406 133.734375 189.648438 C 137.175781 185.765625 140.015625 183.011719 142.300781 181.050781 C 147.011719 177.371094 149.527344 177.324219 150.230469 177.410156 C 150.28125 177.425781 150.335938 177.425781 150.386719 177.441406 C 146.871094 178.621094 142.402344 183.71875 137.222656 189.683594 L 137.148438 189.765625 L 137.003906 189.933594 L 136.066406 191.015625 C 133.351562 194.136719 130.285156 198.605469 129.214844 200.171875 L 129.210938 200.179688 C 129.097656 200.347656 128.988281 200.519531 128.886719 200.695312 C 128.816406 200.820312 128.753906 200.9375 128.703125 201.046875 L 128.699219 201.050781 L 128.929688 202.152344 L 130.566406 210.023438 C 130.589844 209.964844 130.617188 209.902344 130.636719 209.847656 Z M 130.636719 209.847656 "/>
<path style=" stroke:none;fill-rule:nonzero;fill:rgb(0%,63.921569%,87.843137%);fill-opacity:1;" d="M 218.367188 241.316406 L 218.347656 241.316406 L 217.472656 238.574219 L 216.136719 238.574219 L 216.136719 242.765625 L 216.90625 242.765625 L 216.90625 239.425781 L 216.929688 239.425781 L 217.984375 242.761719 L 218.722656 242.761719 L 219.816406 239.425781 L 219.835938 239.425781 L 219.835938 242.761719 L 220.605469 242.761719 L 220.605469 238.574219 L 219.277344 238.574219 Z M 212.402344 239.324219 L 213.535156 239.324219 L 213.535156 242.765625 L 214.304688 242.765625 L 214.304688 239.324219 L 215.449219 239.324219 L 215.449219 238.574219 L 212.402344 238.574219 Z M 212.402344 239.324219 "/>
</g>
</svg>
