<?xml version="1.0" encoding="UTF-8"?>
<svg xmlns="http://www.w3.org/2000/svg" xmlns:xlink="http://www.w3.org/1999/xlink" width="304px" height="324px" viewBox="0 0 304 304" version="1.1">
<g id="surface1">
<path style=" stroke:none;fill-rule:nonzero;fill:rgb(0%,19.607843%,47.058824%);fill-opacity:1;" d="M 91.234375 112.066406 L 91.1875 117.558594 L 69.585938 117.558594 L 77.554688 127.605469 L 100.710938 127.605469 L 100.730469 123.644531 C 100.730469 101.621094 102.820312 87.664062 125.855469 85.152344 L 125.855469 82.230469 C 100.988281 82.316406 91.246094 90.59375 91.234375 112.066406 M 165.765625 150.609375 L 165.765625 199.027344 C 165.765625 201.527344 166.339844 203.964844 173.128906 203.964844 L 176.554688 203.964844 L 176.554688 155.136719 C 176.554688 145.238281 190.265625 141.453125 190.265625 141.453125 C 190.265625 141.453125 186.90625 140.113281 183.492188 137.691406 L 177.570312 139.371094 C 177.445312 139.398438 165.765625 142.8125 165.765625 150.609375 M 224.167969 58.460938 L 224.167969 117.558594 L 208.132812 117.558594 L 216.707031 128.285156 L 234.414062 128.285156 L 234.414062 69.261719 M 165.765625 122.445312 C 165.765625 128.445312 174.457031 133.160156 177.8125 134.449219 L 181.078125 135.722656 C 178.585938 133.445312 176.554688 130.5 176.554688 127 L 176.554688 85.804688 L 178.5 85.941406 C 184.328125 85.941406 189.839844 87.921875 194.433594 91.277344 C 188.285156 85.558594 178.617188 82.488281 165.765625 82.390625 Z M 110.480469 234.738281 L 110.480469 234.835938 L 118.90625 245.910156 L 195.121094 245.910156 L 195.121094 220.394531 L 186.074219 209.878906 L 186.074219 234.738281 "/>
<path style=" stroke:none;fill-rule:nonzero;fill:rgb(75.294118%,6.666667%,12.156863%);fill-opacity:1;" d="M 70.128906 112.375 L 86.160156 112.375 C 86.160156 112.214844 86.191406 112.101562 86.191406 111.976562 C 86.191406 111.582031 86.160156 111.433594 86.0625 111.800781 C 86.0625 87.734375 98.414062 77.035156 126.101562 77.035156 L 131.039062 77.035156 L 131.039062 122.445312 C 131.039062 129.882812 126.015625 134.261719 121.980469 136.761719 C 126.046875 139.050781 131.042969 143.148438 131.042969 150.59375 L 131.042969 198.605469 C 131.042969 205.101562 126.417969 209.132812 118.960938 209.132812 L 110.6875 209.132812 L 110.6875 229.574219 L 180.898438 229.574219 L 180.898438 209.136719 L 173.128906 209.136719 C 162.765625 209.136719 160.589844 203.65625 160.589844 199.027344 L 160.589844 150.597656 C 160.589844 143.171875 166.425781 138.964844 170.984375 136.675781 C 166.480469 133.992188 160.589844 129.363281 160.589844 122.445312 L 160.589844 79.609375 L 162.515625 77.121094 L 165.109375 77.121094 C 191.933594 77.121094 207.328125 89.3125 207.328125 110.566406 C 207.328125 110.566406 207.320312 111.519531 207.300781 112.375 L 218.996094 112.375 L 218.996094 58.089844 L 70.128906 58.089844 Z M 70.128906 112.375 "/>
<path style=" stroke:none;fill-rule:nonzero;fill:rgb(0%,19.607843%,47.058824%);fill-opacity:1;" d="M 198.511719 236.703125 L 201.234375 236.703125 L 201.234375 244.105469 L 203.066406 244.105469 L 203.066406 236.703125 L 205.757812 236.703125 L 205.757812 235.109375 L 198.515625 235.109375 M 212.742188 240.984375 L 212.691406 240.984375 L 210.59375 235.105469 L 207.421875 235.105469 L 207.421875 244.101562 L 209.257812 244.101562 L 209.257812 236.9375 L 209.300781 236.9375 L 211.804688 244.105469 L 213.589844 244.105469 L 216.191406 236.9375 L 216.230469 236.9375 L 216.230469 244.105469 L 218.074219 244.105469 L 218.074219 235.109375 L 214.90625 235.109375 "/>
</g>
</svg>
